G04 #@! TF.GenerationSoftware,KiCad,Pcbnew,(5.1.2)-2*
G04 #@! TF.CreationDate,2019-12-12T02:46:19+03:00*
G04 #@! TF.ProjectId,uController One,75436f6e-7472-46f6-9c6c-6572204f6e65,1*
G04 #@! TF.SameCoordinates,Original*
G04 #@! TF.FileFunction,Soldermask,Top*
G04 #@! TF.FilePolarity,Negative*
%FSLAX46Y46*%
G04 Gerber Fmt 4.6, Leading zero omitted, Abs format (unit mm)*
G04 Created by KiCad (PCBNEW (5.1.2)-2) date 2019-12-12 02:46:19*
%MOMM*%
%LPD*%
G04 APERTURE LIST*
%ADD10C,0.100000*%
G04 APERTURE END LIST*
D10*
G36*
X112643228Y-86731703D02*
G01*
X112798100Y-86795853D01*
X112937481Y-86888985D01*
X113056015Y-87007519D01*
X113149147Y-87146900D01*
X113213297Y-87301772D01*
X113246000Y-87466184D01*
X113246000Y-87633816D01*
X113213297Y-87798228D01*
X113149147Y-87953100D01*
X113056015Y-88092481D01*
X112937481Y-88211015D01*
X112798100Y-88304147D01*
X112643228Y-88368297D01*
X112478816Y-88401000D01*
X112311184Y-88401000D01*
X112146772Y-88368297D01*
X111991900Y-88304147D01*
X111852519Y-88211015D01*
X111733985Y-88092481D01*
X111640853Y-87953100D01*
X111576703Y-87798228D01*
X111544000Y-87633816D01*
X111544000Y-87466184D01*
X111576703Y-87301772D01*
X111640853Y-87146900D01*
X111733985Y-87007519D01*
X111852519Y-86888985D01*
X111991900Y-86795853D01*
X112146772Y-86731703D01*
X112311184Y-86699000D01*
X112478816Y-86699000D01*
X112643228Y-86731703D01*
X112643228Y-86731703D01*
G37*
G36*
X135513945Y-81787539D02*
G01*
X135948282Y-81873934D01*
X136539926Y-82119001D01*
X136829523Y-82312504D01*
X137069482Y-82472839D01*
X137072392Y-82474784D01*
X137525216Y-82927608D01*
X137880999Y-83460074D01*
X138126066Y-84051718D01*
X138161261Y-84228656D01*
X138251000Y-84679803D01*
X138251000Y-85320197D01*
X138220390Y-85474083D01*
X138126066Y-85948282D01*
X137880999Y-86539926D01*
X137525216Y-87072392D01*
X137072392Y-87525216D01*
X136539926Y-87880999D01*
X135948282Y-88126066D01*
X135634239Y-88188533D01*
X135320197Y-88251000D01*
X134679803Y-88251000D01*
X134365761Y-88188533D01*
X134051718Y-88126066D01*
X133460074Y-87880999D01*
X132927608Y-87525216D01*
X132474784Y-87072392D01*
X132119001Y-86539926D01*
X131873934Y-85948282D01*
X131779610Y-85474083D01*
X131749000Y-85320197D01*
X131749000Y-84679803D01*
X131838739Y-84228656D01*
X131873934Y-84051718D01*
X132119001Y-83460074D01*
X132474784Y-82927608D01*
X132927608Y-82474784D01*
X132930519Y-82472839D01*
X133170477Y-82312504D01*
X133460074Y-82119001D01*
X134051718Y-81873934D01*
X134486055Y-81787539D01*
X134679803Y-81749000D01*
X135320197Y-81749000D01*
X135513945Y-81787539D01*
X135513945Y-81787539D01*
G37*
G36*
X45513945Y-81787539D02*
G01*
X45948282Y-81873934D01*
X46539926Y-82119001D01*
X46829523Y-82312504D01*
X47069482Y-82472839D01*
X47072392Y-82474784D01*
X47525216Y-82927608D01*
X47880999Y-83460074D01*
X48126066Y-84051718D01*
X48161261Y-84228656D01*
X48251000Y-84679803D01*
X48251000Y-85320197D01*
X48220390Y-85474083D01*
X48126066Y-85948282D01*
X47880999Y-86539926D01*
X47525216Y-87072392D01*
X47072392Y-87525216D01*
X46539926Y-87880999D01*
X45948282Y-88126066D01*
X45634239Y-88188533D01*
X45320197Y-88251000D01*
X44679803Y-88251000D01*
X44365761Y-88188533D01*
X44051718Y-88126066D01*
X43460074Y-87880999D01*
X42927608Y-87525216D01*
X42474784Y-87072392D01*
X42119001Y-86539926D01*
X41873934Y-85948282D01*
X41779610Y-85474083D01*
X41749000Y-85320197D01*
X41749000Y-84679803D01*
X41838739Y-84228656D01*
X41873934Y-84051718D01*
X42119001Y-83460074D01*
X42474784Y-82927608D01*
X42927608Y-82474784D01*
X42930519Y-82472839D01*
X43170477Y-82312504D01*
X43460074Y-82119001D01*
X44051718Y-81873934D01*
X44486055Y-81787539D01*
X44679803Y-81749000D01*
X45320197Y-81749000D01*
X45513945Y-81787539D01*
X45513945Y-81787539D01*
G37*
G36*
X98616720Y-85323520D02*
G01*
X98805881Y-85380901D01*
X98980212Y-85474083D01*
X99133015Y-85599485D01*
X99258417Y-85752288D01*
X99296414Y-85823375D01*
X99351598Y-85926617D01*
X99351599Y-85926620D01*
X99408980Y-86115781D01*
X99423500Y-86263207D01*
X99423500Y-86456794D01*
X99408980Y-86604220D01*
X99351599Y-86793381D01*
X99258417Y-86967712D01*
X99133015Y-87120515D01*
X98980212Y-87245917D01*
X98938059Y-87268448D01*
X98805883Y-87339098D01*
X98805880Y-87339099D01*
X98616719Y-87396480D01*
X98420000Y-87415855D01*
X98223280Y-87396480D01*
X98034119Y-87339099D01*
X97859788Y-87245917D01*
X97706985Y-87120515D01*
X97581583Y-86967712D01*
X97537818Y-86885833D01*
X97488402Y-86793383D01*
X97469692Y-86731703D01*
X97431020Y-86604219D01*
X97416500Y-86456793D01*
X97416500Y-86263206D01*
X97431020Y-86115780D01*
X97488401Y-85926619D01*
X97581583Y-85752288D01*
X97706985Y-85599485D01*
X97859788Y-85474083D01*
X98034120Y-85380901D01*
X98223281Y-85323520D01*
X98420000Y-85304145D01*
X98616720Y-85323520D01*
X98616720Y-85323520D01*
G37*
G36*
X96076720Y-85323520D02*
G01*
X96265881Y-85380901D01*
X96440212Y-85474083D01*
X96593015Y-85599485D01*
X96718417Y-85752288D01*
X96756414Y-85823375D01*
X96811598Y-85926617D01*
X96811599Y-85926620D01*
X96868980Y-86115781D01*
X96883500Y-86263207D01*
X96883500Y-86456794D01*
X96868980Y-86604220D01*
X96811599Y-86793381D01*
X96718417Y-86967712D01*
X96593015Y-87120515D01*
X96440212Y-87245917D01*
X96398059Y-87268448D01*
X96265883Y-87339098D01*
X96265880Y-87339099D01*
X96076719Y-87396480D01*
X95880000Y-87415855D01*
X95683280Y-87396480D01*
X95494119Y-87339099D01*
X95319788Y-87245917D01*
X95166985Y-87120515D01*
X95041583Y-86967712D01*
X94997818Y-86885833D01*
X94948402Y-86793383D01*
X94929692Y-86731703D01*
X94891020Y-86604219D01*
X94876500Y-86456793D01*
X94876500Y-86263206D01*
X94891020Y-86115780D01*
X94948401Y-85926619D01*
X95041583Y-85752288D01*
X95166985Y-85599485D01*
X95319788Y-85474083D01*
X95494120Y-85380901D01*
X95683281Y-85323520D01*
X95880000Y-85304145D01*
X96076720Y-85323520D01*
X96076720Y-85323520D01*
G37*
G36*
X101963500Y-87411000D02*
G01*
X99956500Y-87411000D01*
X99956500Y-85309000D01*
X101963500Y-85309000D01*
X101963500Y-87411000D01*
X101963500Y-87411000D01*
G37*
G36*
X57411000Y-86901000D02*
G01*
X55609000Y-86901000D01*
X55609000Y-85099000D01*
X57411000Y-85099000D01*
X57411000Y-86901000D01*
X57411000Y-86901000D01*
G37*
G36*
X59160443Y-85105519D02*
G01*
X59226627Y-85112037D01*
X59396466Y-85163557D01*
X59552991Y-85247222D01*
X59588729Y-85276552D01*
X59690186Y-85359814D01*
X59765019Y-85451000D01*
X59802778Y-85497009D01*
X59886443Y-85653534D01*
X59937963Y-85823373D01*
X59955359Y-86000000D01*
X59937963Y-86176627D01*
X59886443Y-86346466D01*
X59886442Y-86346468D01*
X59852718Y-86409560D01*
X59802778Y-86502991D01*
X59773448Y-86538729D01*
X59690186Y-86640186D01*
X59588729Y-86723448D01*
X59552991Y-86752778D01*
X59396466Y-86836443D01*
X59226627Y-86887963D01*
X59160442Y-86894482D01*
X59094260Y-86901000D01*
X59005740Y-86901000D01*
X58939558Y-86894482D01*
X58873373Y-86887963D01*
X58703534Y-86836443D01*
X58547009Y-86752778D01*
X58511271Y-86723448D01*
X58409814Y-86640186D01*
X58326552Y-86538729D01*
X58297222Y-86502991D01*
X58247282Y-86409560D01*
X58213558Y-86346468D01*
X58213557Y-86346466D01*
X58162037Y-86176627D01*
X58144641Y-86000000D01*
X58162037Y-85823373D01*
X58213557Y-85653534D01*
X58297222Y-85497009D01*
X58334981Y-85451000D01*
X58409814Y-85359814D01*
X58511271Y-85276552D01*
X58547009Y-85247222D01*
X58703534Y-85163557D01*
X58873373Y-85112037D01*
X58939557Y-85105519D01*
X59005740Y-85099000D01*
X59094260Y-85099000D01*
X59160443Y-85105519D01*
X59160443Y-85105519D01*
G37*
G36*
X61700443Y-85105519D02*
G01*
X61766627Y-85112037D01*
X61936466Y-85163557D01*
X62092991Y-85247222D01*
X62128729Y-85276552D01*
X62230186Y-85359814D01*
X62305019Y-85451000D01*
X62342778Y-85497009D01*
X62426443Y-85653534D01*
X62477963Y-85823373D01*
X62495359Y-86000000D01*
X62477963Y-86176627D01*
X62426443Y-86346466D01*
X62426442Y-86346468D01*
X62392718Y-86409560D01*
X62342778Y-86502991D01*
X62313448Y-86538729D01*
X62230186Y-86640186D01*
X62128729Y-86723448D01*
X62092991Y-86752778D01*
X61936466Y-86836443D01*
X61766627Y-86887963D01*
X61700442Y-86894482D01*
X61634260Y-86901000D01*
X61545740Y-86901000D01*
X61479558Y-86894482D01*
X61413373Y-86887963D01*
X61243534Y-86836443D01*
X61087009Y-86752778D01*
X61051271Y-86723448D01*
X60949814Y-86640186D01*
X60866552Y-86538729D01*
X60837222Y-86502991D01*
X60787282Y-86409560D01*
X60753558Y-86346468D01*
X60753557Y-86346466D01*
X60702037Y-86176627D01*
X60684641Y-86000000D01*
X60702037Y-85823373D01*
X60753557Y-85653534D01*
X60837222Y-85497009D01*
X60874981Y-85451000D01*
X60949814Y-85359814D01*
X61051271Y-85276552D01*
X61087009Y-85247222D01*
X61243534Y-85163557D01*
X61413373Y-85112037D01*
X61479557Y-85105519D01*
X61545740Y-85099000D01*
X61634260Y-85099000D01*
X61700443Y-85105519D01*
X61700443Y-85105519D01*
G37*
G36*
X64240443Y-85105519D02*
G01*
X64306627Y-85112037D01*
X64476466Y-85163557D01*
X64632991Y-85247222D01*
X64668729Y-85276552D01*
X64770186Y-85359814D01*
X64845019Y-85451000D01*
X64882778Y-85497009D01*
X64966443Y-85653534D01*
X65017963Y-85823373D01*
X65035359Y-86000000D01*
X65017963Y-86176627D01*
X64966443Y-86346466D01*
X64966442Y-86346468D01*
X64932718Y-86409560D01*
X64882778Y-86502991D01*
X64853448Y-86538729D01*
X64770186Y-86640186D01*
X64668729Y-86723448D01*
X64632991Y-86752778D01*
X64476466Y-86836443D01*
X64306627Y-86887963D01*
X64240442Y-86894482D01*
X64174260Y-86901000D01*
X64085740Y-86901000D01*
X64019558Y-86894482D01*
X63953373Y-86887963D01*
X63783534Y-86836443D01*
X63627009Y-86752778D01*
X63591271Y-86723448D01*
X63489814Y-86640186D01*
X63406552Y-86538729D01*
X63377222Y-86502991D01*
X63327282Y-86409560D01*
X63293558Y-86346468D01*
X63293557Y-86346466D01*
X63242037Y-86176627D01*
X63224641Y-86000000D01*
X63242037Y-85823373D01*
X63293557Y-85653534D01*
X63377222Y-85497009D01*
X63414981Y-85451000D01*
X63489814Y-85359814D01*
X63591271Y-85276552D01*
X63627009Y-85247222D01*
X63783534Y-85163557D01*
X63953373Y-85112037D01*
X64019557Y-85105519D01*
X64085740Y-85099000D01*
X64174260Y-85099000D01*
X64240443Y-85105519D01*
X64240443Y-85105519D01*
G37*
G36*
X66780443Y-85105519D02*
G01*
X66846627Y-85112037D01*
X67016466Y-85163557D01*
X67172991Y-85247222D01*
X67208729Y-85276552D01*
X67310186Y-85359814D01*
X67385019Y-85451000D01*
X67422778Y-85497009D01*
X67506443Y-85653534D01*
X67557963Y-85823373D01*
X67575359Y-86000000D01*
X67557963Y-86176627D01*
X67506443Y-86346466D01*
X67506442Y-86346468D01*
X67472718Y-86409560D01*
X67422778Y-86502991D01*
X67393448Y-86538729D01*
X67310186Y-86640186D01*
X67208729Y-86723448D01*
X67172991Y-86752778D01*
X67016466Y-86836443D01*
X66846627Y-86887963D01*
X66780442Y-86894482D01*
X66714260Y-86901000D01*
X66625740Y-86901000D01*
X66559558Y-86894482D01*
X66493373Y-86887963D01*
X66323534Y-86836443D01*
X66167009Y-86752778D01*
X66131271Y-86723448D01*
X66029814Y-86640186D01*
X65946552Y-86538729D01*
X65917222Y-86502991D01*
X65867282Y-86409560D01*
X65833558Y-86346468D01*
X65833557Y-86346466D01*
X65782037Y-86176627D01*
X65764641Y-86000000D01*
X65782037Y-85823373D01*
X65833557Y-85653534D01*
X65917222Y-85497009D01*
X65954981Y-85451000D01*
X66029814Y-85359814D01*
X66131271Y-85276552D01*
X66167009Y-85247222D01*
X66323534Y-85163557D01*
X66493373Y-85112037D01*
X66559557Y-85105519D01*
X66625740Y-85099000D01*
X66714260Y-85099000D01*
X66780443Y-85105519D01*
X66780443Y-85105519D01*
G37*
G36*
X71860443Y-85105519D02*
G01*
X71926627Y-85112037D01*
X72096466Y-85163557D01*
X72252991Y-85247222D01*
X72288729Y-85276552D01*
X72390186Y-85359814D01*
X72465019Y-85451000D01*
X72502778Y-85497009D01*
X72586443Y-85653534D01*
X72637963Y-85823373D01*
X72655359Y-86000000D01*
X72637963Y-86176627D01*
X72586443Y-86346466D01*
X72586442Y-86346468D01*
X72552718Y-86409560D01*
X72502778Y-86502991D01*
X72473448Y-86538729D01*
X72390186Y-86640186D01*
X72288729Y-86723448D01*
X72252991Y-86752778D01*
X72096466Y-86836443D01*
X71926627Y-86887963D01*
X71860442Y-86894482D01*
X71794260Y-86901000D01*
X71705740Y-86901000D01*
X71639558Y-86894482D01*
X71573373Y-86887963D01*
X71403534Y-86836443D01*
X71247009Y-86752778D01*
X71211271Y-86723448D01*
X71109814Y-86640186D01*
X71026552Y-86538729D01*
X70997222Y-86502991D01*
X70947282Y-86409560D01*
X70913558Y-86346468D01*
X70913557Y-86346466D01*
X70862037Y-86176627D01*
X70844641Y-86000000D01*
X70862037Y-85823373D01*
X70913557Y-85653534D01*
X70997222Y-85497009D01*
X71034981Y-85451000D01*
X71109814Y-85359814D01*
X71211271Y-85276552D01*
X71247009Y-85247222D01*
X71403534Y-85163557D01*
X71573373Y-85112037D01*
X71639557Y-85105519D01*
X71705740Y-85099000D01*
X71794260Y-85099000D01*
X71860443Y-85105519D01*
X71860443Y-85105519D01*
G37*
G36*
X74400443Y-85105519D02*
G01*
X74466627Y-85112037D01*
X74636466Y-85163557D01*
X74792991Y-85247222D01*
X74828729Y-85276552D01*
X74930186Y-85359814D01*
X75005019Y-85451000D01*
X75042778Y-85497009D01*
X75126443Y-85653534D01*
X75177963Y-85823373D01*
X75195359Y-86000000D01*
X75177963Y-86176627D01*
X75126443Y-86346466D01*
X75126442Y-86346468D01*
X75092718Y-86409560D01*
X75042778Y-86502991D01*
X75013448Y-86538729D01*
X74930186Y-86640186D01*
X74828729Y-86723448D01*
X74792991Y-86752778D01*
X74636466Y-86836443D01*
X74466627Y-86887963D01*
X74400442Y-86894482D01*
X74334260Y-86901000D01*
X74245740Y-86901000D01*
X74179558Y-86894482D01*
X74113373Y-86887963D01*
X73943534Y-86836443D01*
X73787009Y-86752778D01*
X73751271Y-86723448D01*
X73649814Y-86640186D01*
X73566552Y-86538729D01*
X73537222Y-86502991D01*
X73487282Y-86409560D01*
X73453558Y-86346468D01*
X73453557Y-86346466D01*
X73402037Y-86176627D01*
X73384641Y-86000000D01*
X73402037Y-85823373D01*
X73453557Y-85653534D01*
X73537222Y-85497009D01*
X73574981Y-85451000D01*
X73649814Y-85359814D01*
X73751271Y-85276552D01*
X73787009Y-85247222D01*
X73943534Y-85163557D01*
X74113373Y-85112037D01*
X74179557Y-85105519D01*
X74245740Y-85099000D01*
X74334260Y-85099000D01*
X74400443Y-85105519D01*
X74400443Y-85105519D01*
G37*
G36*
X69320443Y-85105519D02*
G01*
X69386627Y-85112037D01*
X69556466Y-85163557D01*
X69712991Y-85247222D01*
X69748729Y-85276552D01*
X69850186Y-85359814D01*
X69925019Y-85451000D01*
X69962778Y-85497009D01*
X70046443Y-85653534D01*
X70097963Y-85823373D01*
X70115359Y-86000000D01*
X70097963Y-86176627D01*
X70046443Y-86346466D01*
X70046442Y-86346468D01*
X70012718Y-86409560D01*
X69962778Y-86502991D01*
X69933448Y-86538729D01*
X69850186Y-86640186D01*
X69748729Y-86723448D01*
X69712991Y-86752778D01*
X69556466Y-86836443D01*
X69386627Y-86887963D01*
X69320442Y-86894482D01*
X69254260Y-86901000D01*
X69165740Y-86901000D01*
X69099558Y-86894482D01*
X69033373Y-86887963D01*
X68863534Y-86836443D01*
X68707009Y-86752778D01*
X68671271Y-86723448D01*
X68569814Y-86640186D01*
X68486552Y-86538729D01*
X68457222Y-86502991D01*
X68407282Y-86409560D01*
X68373558Y-86346468D01*
X68373557Y-86346466D01*
X68322037Y-86176627D01*
X68304641Y-86000000D01*
X68322037Y-85823373D01*
X68373557Y-85653534D01*
X68457222Y-85497009D01*
X68494981Y-85451000D01*
X68569814Y-85359814D01*
X68671271Y-85276552D01*
X68707009Y-85247222D01*
X68863534Y-85163557D01*
X69033373Y-85112037D01*
X69099557Y-85105519D01*
X69165740Y-85099000D01*
X69254260Y-85099000D01*
X69320443Y-85105519D01*
X69320443Y-85105519D01*
G37*
G36*
X118626000Y-86241000D02*
G01*
X116324000Y-86241000D01*
X116324000Y-83939000D01*
X118626000Y-83939000D01*
X118626000Y-86241000D01*
X118626000Y-86241000D01*
G37*
G36*
X127804271Y-83950103D02*
G01*
X127860635Y-83955654D01*
X128077600Y-84021470D01*
X128077602Y-84021471D01*
X128277555Y-84128347D01*
X128452818Y-84272182D01*
X128596653Y-84447445D01*
X128678370Y-84600329D01*
X128703530Y-84647400D01*
X128769346Y-84864365D01*
X128791569Y-85090000D01*
X128769346Y-85315635D01*
X128714326Y-85497011D01*
X128703529Y-85532602D01*
X128596653Y-85732555D01*
X128452818Y-85907818D01*
X128277555Y-86051653D01*
X128077602Y-86158529D01*
X128077600Y-86158530D01*
X127860635Y-86224346D01*
X127804271Y-86229897D01*
X127691545Y-86241000D01*
X127578455Y-86241000D01*
X127465729Y-86229897D01*
X127409365Y-86224346D01*
X127192400Y-86158530D01*
X127192398Y-86158529D01*
X126992445Y-86051653D01*
X126817182Y-85907818D01*
X126673347Y-85732555D01*
X126566471Y-85532602D01*
X126555675Y-85497011D01*
X126500654Y-85315635D01*
X126478431Y-85090000D01*
X126500654Y-84864365D01*
X126566470Y-84647400D01*
X126591630Y-84600329D01*
X126673347Y-84447445D01*
X126817182Y-84272182D01*
X126992445Y-84128347D01*
X127192398Y-84021471D01*
X127192400Y-84021470D01*
X127409365Y-83955654D01*
X127465729Y-83950103D01*
X127578455Y-83939000D01*
X127691545Y-83939000D01*
X127804271Y-83950103D01*
X127804271Y-83950103D01*
G37*
G36*
X87419038Y-82446062D02*
G01*
X87553657Y-82472839D01*
X87659097Y-82516514D01*
X87808621Y-82578449D01*
X87882525Y-82627830D01*
X88038086Y-82731772D01*
X88233228Y-82926914D01*
X88281842Y-82999671D01*
X88386551Y-83156379D01*
X88409182Y-83211015D01*
X88487877Y-83401000D01*
X88492161Y-83411344D01*
X88546000Y-83682012D01*
X88546000Y-83957988D01*
X88492161Y-84228656D01*
X88386551Y-84483621D01*
X88386550Y-84483622D01*
X88233228Y-84713086D01*
X88038086Y-84908228D01*
X87967218Y-84955580D01*
X87808621Y-85061551D01*
X87730207Y-85094031D01*
X87553657Y-85167161D01*
X87463433Y-85185107D01*
X87282988Y-85221000D01*
X87007012Y-85221000D01*
X86826567Y-85185107D01*
X86736343Y-85167161D01*
X86559793Y-85094031D01*
X86481379Y-85061551D01*
X86322782Y-84955580D01*
X86251914Y-84908228D01*
X86056772Y-84713086D01*
X85903450Y-84483622D01*
X85903449Y-84483621D01*
X85797839Y-84228656D01*
X85744000Y-83957988D01*
X85744000Y-83682012D01*
X85797839Y-83411344D01*
X85802124Y-83401000D01*
X85880818Y-83211015D01*
X85903449Y-83156379D01*
X86008158Y-82999671D01*
X86056772Y-82926914D01*
X86251914Y-82731772D01*
X86407475Y-82627830D01*
X86481379Y-82578449D01*
X86630903Y-82516514D01*
X86736343Y-82472839D01*
X86870962Y-82446062D01*
X87007012Y-82419000D01*
X87282988Y-82419000D01*
X87419038Y-82446062D01*
X87419038Y-82446062D01*
G37*
G36*
X84459031Y-82422621D02*
G01*
X84488486Y-82431556D01*
X84515623Y-82446062D01*
X84539414Y-82465586D01*
X84558938Y-82489377D01*
X84573444Y-82516514D01*
X84582379Y-82545969D01*
X84586000Y-82582734D01*
X84586000Y-85057266D01*
X84582379Y-85094031D01*
X84573444Y-85123486D01*
X84558938Y-85150623D01*
X84539414Y-85174414D01*
X84515623Y-85193938D01*
X84488486Y-85208444D01*
X84459031Y-85217379D01*
X84422266Y-85221000D01*
X81947734Y-85221000D01*
X81910969Y-85217379D01*
X81881514Y-85208444D01*
X81854377Y-85193938D01*
X81830586Y-85174414D01*
X81811062Y-85150623D01*
X81796556Y-85123486D01*
X81787621Y-85094031D01*
X81784000Y-85057266D01*
X81784000Y-82582734D01*
X81787621Y-82545969D01*
X81796556Y-82516514D01*
X81811062Y-82489377D01*
X81830586Y-82465586D01*
X81854377Y-82446062D01*
X81881514Y-82431556D01*
X81910969Y-82422621D01*
X81947734Y-82419000D01*
X84422266Y-82419000D01*
X84459031Y-82422621D01*
X84459031Y-82422621D01*
G37*
G36*
X112643228Y-81731703D02*
G01*
X112798100Y-81795853D01*
X112937481Y-81888985D01*
X113056015Y-82007519D01*
X113149147Y-82146900D01*
X113213297Y-82301772D01*
X113246000Y-82466184D01*
X113246000Y-82633816D01*
X113213297Y-82798228D01*
X113149147Y-82953100D01*
X113056015Y-83092481D01*
X112937481Y-83211015D01*
X112798100Y-83304147D01*
X112643228Y-83368297D01*
X112478816Y-83401000D01*
X112311184Y-83401000D01*
X112146772Y-83368297D01*
X111991900Y-83304147D01*
X111852519Y-83211015D01*
X111733985Y-83092481D01*
X111640853Y-82953100D01*
X111576703Y-82798228D01*
X111544000Y-82633816D01*
X111544000Y-82466184D01*
X111576703Y-82301772D01*
X111640853Y-82146900D01*
X111733985Y-82007519D01*
X111852519Y-81888985D01*
X111991900Y-81795853D01*
X112146772Y-81731703D01*
X112311184Y-81699000D01*
X112478816Y-81699000D01*
X112643228Y-81731703D01*
X112643228Y-81731703D01*
G37*
G36*
X130459270Y-80338816D02*
G01*
X130624153Y-80407113D01*
X130772539Y-80506261D01*
X130898739Y-80632461D01*
X130997887Y-80780847D01*
X131066184Y-80945730D01*
X131101000Y-81120765D01*
X131101000Y-81299235D01*
X131066184Y-81474270D01*
X130997887Y-81639153D01*
X130898739Y-81787539D01*
X130772539Y-81913739D01*
X130624153Y-82012887D01*
X130459270Y-82081184D01*
X130284235Y-82116000D01*
X130105765Y-82116000D01*
X129930730Y-82081184D01*
X129765847Y-82012887D01*
X129617461Y-81913739D01*
X129491261Y-81787539D01*
X129392113Y-81639153D01*
X129323816Y-81474270D01*
X129289000Y-81299235D01*
X129289000Y-81120765D01*
X129323816Y-80945730D01*
X129392113Y-80780847D01*
X129491261Y-80632461D01*
X129617461Y-80506261D01*
X129765847Y-80407113D01*
X129930730Y-80338816D01*
X130105765Y-80304000D01*
X130284235Y-80304000D01*
X130459270Y-80338816D01*
X130459270Y-80338816D01*
G37*
G36*
X125359270Y-79138816D02*
G01*
X125524153Y-79207113D01*
X125672539Y-79306261D01*
X125798739Y-79432461D01*
X125897887Y-79580847D01*
X125966184Y-79745730D01*
X126001000Y-79920765D01*
X126001000Y-80099235D01*
X125966184Y-80274270D01*
X125897887Y-80439153D01*
X125798739Y-80587539D01*
X125672539Y-80713739D01*
X125524153Y-80812887D01*
X125359270Y-80881184D01*
X125184235Y-80916000D01*
X125005765Y-80916000D01*
X124830730Y-80881184D01*
X124665847Y-80812887D01*
X124517461Y-80713739D01*
X124391261Y-80587539D01*
X124292113Y-80439153D01*
X124223816Y-80274270D01*
X124189000Y-80099235D01*
X124189000Y-79920765D01*
X124223816Y-79745730D01*
X124292113Y-79580847D01*
X124391261Y-79432461D01*
X124517461Y-79306261D01*
X124665847Y-79207113D01*
X124830730Y-79138816D01*
X125005765Y-79104000D01*
X125184235Y-79104000D01*
X125359270Y-79138816D01*
X125359270Y-79138816D01*
G37*
G36*
X112732916Y-76267334D02*
G01*
X112841492Y-76300271D01*
X112841495Y-76300272D01*
X112876807Y-76319147D01*
X112941557Y-76353756D01*
X113029264Y-76425736D01*
X113101244Y-76513443D01*
X113135429Y-76577399D01*
X113154728Y-76613505D01*
X113154729Y-76613508D01*
X113187666Y-76722084D01*
X113198787Y-76835000D01*
X113187666Y-76947916D01*
X113154729Y-77056492D01*
X113154728Y-77056495D01*
X113135429Y-77092601D01*
X113101244Y-77156557D01*
X113029264Y-77244264D01*
X112941557Y-77316244D01*
X112860141Y-77359761D01*
X112839766Y-77373375D01*
X112822439Y-77390702D01*
X112808826Y-77411076D01*
X112799448Y-77433715D01*
X112794668Y-77457748D01*
X112794668Y-77482252D01*
X112799448Y-77506285D01*
X112808826Y-77528924D01*
X112822440Y-77549299D01*
X112839767Y-77566626D01*
X112860141Y-77580239D01*
X112941557Y-77623756D01*
X113029264Y-77695736D01*
X113101244Y-77783443D01*
X113135429Y-77847399D01*
X113154728Y-77883505D01*
X113154729Y-77883508D01*
X113187666Y-77992084D01*
X113198787Y-78105000D01*
X113187666Y-78217916D01*
X113154729Y-78326492D01*
X113154728Y-78326495D01*
X113135429Y-78362601D01*
X113101244Y-78426557D01*
X113029264Y-78514264D01*
X112952354Y-78577383D01*
X112935035Y-78594702D01*
X112921421Y-78615077D01*
X112912043Y-78637716D01*
X112907263Y-78661749D01*
X112907263Y-78686253D01*
X112912043Y-78710286D01*
X112921421Y-78732925D01*
X112935034Y-78753299D01*
X112952361Y-78770626D01*
X112972736Y-78784240D01*
X112995375Y-78793618D01*
X113019408Y-78798398D01*
X113031660Y-78799000D01*
X113196000Y-78799000D01*
X113196000Y-79951000D01*
X111594000Y-79951000D01*
X111594000Y-78799000D01*
X111758340Y-78799000D01*
X111782726Y-78796598D01*
X111806175Y-78789485D01*
X111827786Y-78777934D01*
X111846728Y-78762389D01*
X111862273Y-78743447D01*
X111873824Y-78721836D01*
X111880937Y-78698387D01*
X111883339Y-78674001D01*
X111880937Y-78649615D01*
X111873824Y-78626166D01*
X111862273Y-78604555D01*
X111846728Y-78585613D01*
X111837655Y-78577391D01*
X111760736Y-78514264D01*
X111688756Y-78426557D01*
X111654571Y-78362601D01*
X111635272Y-78326495D01*
X111635271Y-78326492D01*
X111602334Y-78217916D01*
X111591213Y-78105000D01*
X111602334Y-77992084D01*
X111635271Y-77883508D01*
X111635272Y-77883505D01*
X111654571Y-77847399D01*
X111688756Y-77783443D01*
X111760736Y-77695736D01*
X111848443Y-77623756D01*
X111929859Y-77580239D01*
X111950234Y-77566625D01*
X111967561Y-77549298D01*
X111981174Y-77528924D01*
X111990552Y-77506285D01*
X111995332Y-77482252D01*
X111995332Y-77457748D01*
X111990552Y-77433715D01*
X111981174Y-77411076D01*
X111967560Y-77390701D01*
X111950233Y-77373374D01*
X111929859Y-77359761D01*
X111848443Y-77316244D01*
X111760736Y-77244264D01*
X111688756Y-77156557D01*
X111654571Y-77092601D01*
X111635272Y-77056495D01*
X111635271Y-77056492D01*
X111602334Y-76947916D01*
X111591213Y-76835000D01*
X111602334Y-76722084D01*
X111635271Y-76613508D01*
X111635272Y-76613505D01*
X111654571Y-76577399D01*
X111688756Y-76513443D01*
X111760736Y-76425736D01*
X111848443Y-76353756D01*
X111913193Y-76319147D01*
X111948505Y-76300272D01*
X111948508Y-76300271D01*
X112057084Y-76267334D01*
X112141702Y-76259000D01*
X112648298Y-76259000D01*
X112732916Y-76267334D01*
X112732916Y-76267334D01*
G37*
G36*
X77078228Y-76566703D02*
G01*
X77233100Y-76630853D01*
X77372481Y-76723985D01*
X77491015Y-76842519D01*
X77584147Y-76981900D01*
X77648297Y-77136772D01*
X77681000Y-77301184D01*
X77681000Y-77468816D01*
X77648297Y-77633228D01*
X77584147Y-77788100D01*
X77491015Y-77927481D01*
X77372481Y-78046015D01*
X77233100Y-78139147D01*
X77078228Y-78203297D01*
X76913816Y-78236000D01*
X76746184Y-78236000D01*
X76581772Y-78203297D01*
X76426900Y-78139147D01*
X76287519Y-78046015D01*
X76168985Y-77927481D01*
X76075853Y-77788100D01*
X76011703Y-77633228D01*
X75979000Y-77468816D01*
X75979000Y-77301184D01*
X76011703Y-77136772D01*
X76075853Y-76981900D01*
X76168985Y-76842519D01*
X76287519Y-76723985D01*
X76426900Y-76630853D01*
X76581772Y-76566703D01*
X76746184Y-76534000D01*
X76913816Y-76534000D01*
X77078228Y-76566703D01*
X77078228Y-76566703D01*
G37*
G36*
X72198228Y-76566703D02*
G01*
X72353100Y-76630853D01*
X72492481Y-76723985D01*
X72611015Y-76842519D01*
X72704147Y-76981900D01*
X72768297Y-77136772D01*
X72801000Y-77301184D01*
X72801000Y-77468816D01*
X72768297Y-77633228D01*
X72704147Y-77788100D01*
X72611015Y-77927481D01*
X72492481Y-78046015D01*
X72353100Y-78139147D01*
X72198228Y-78203297D01*
X72033816Y-78236000D01*
X71866184Y-78236000D01*
X71701772Y-78203297D01*
X71546900Y-78139147D01*
X71407519Y-78046015D01*
X71288985Y-77927481D01*
X71195853Y-77788100D01*
X71131703Y-77633228D01*
X71099000Y-77468816D01*
X71099000Y-77301184D01*
X71131703Y-77136772D01*
X71195853Y-76981900D01*
X71288985Y-76842519D01*
X71407519Y-76723985D01*
X71546900Y-76630853D01*
X71701772Y-76566703D01*
X71866184Y-76534000D01*
X72033816Y-76534000D01*
X72198228Y-76566703D01*
X72198228Y-76566703D01*
G37*
G36*
X44110442Y-74665518D02*
G01*
X44176627Y-74672037D01*
X44346466Y-74723557D01*
X44346468Y-74723558D01*
X44380415Y-74741703D01*
X44502991Y-74807222D01*
X44507415Y-74810853D01*
X44640186Y-74919814D01*
X44720369Y-75017519D01*
X44752778Y-75057009D01*
X44836443Y-75213534D01*
X44887963Y-75383373D01*
X44905359Y-75560000D01*
X44887963Y-75736627D01*
X44836443Y-75906466D01*
X44752778Y-76062991D01*
X44723448Y-76098729D01*
X44640186Y-76200186D01*
X44538729Y-76283448D01*
X44502991Y-76312778D01*
X44346466Y-76396443D01*
X44176627Y-76447963D01*
X44110443Y-76454481D01*
X44044260Y-76461000D01*
X43955740Y-76461000D01*
X43889557Y-76454481D01*
X43823373Y-76447963D01*
X43653534Y-76396443D01*
X43497009Y-76312778D01*
X43461271Y-76283448D01*
X43359814Y-76200186D01*
X43276552Y-76098729D01*
X43247222Y-76062991D01*
X43163557Y-75906466D01*
X43112037Y-75736627D01*
X43094641Y-75560000D01*
X43112037Y-75383373D01*
X43163557Y-75213534D01*
X43247222Y-75057009D01*
X43279631Y-75017519D01*
X43359814Y-74919814D01*
X43492585Y-74810853D01*
X43497009Y-74807222D01*
X43619585Y-74741703D01*
X43653532Y-74723558D01*
X43653534Y-74723557D01*
X43823373Y-74672037D01*
X43889558Y-74665518D01*
X43955740Y-74659000D01*
X44044260Y-74659000D01*
X44110442Y-74665518D01*
X44110442Y-74665518D01*
G37*
G36*
X118358228Y-74746703D02*
G01*
X118513100Y-74810853D01*
X118652481Y-74903985D01*
X118771015Y-75022519D01*
X118864147Y-75161900D01*
X118928297Y-75316772D01*
X118961000Y-75481184D01*
X118961000Y-75648816D01*
X118928297Y-75813228D01*
X118864147Y-75968100D01*
X118771015Y-76107481D01*
X118652481Y-76226015D01*
X118513100Y-76319147D01*
X118358228Y-76383297D01*
X118193816Y-76416000D01*
X118026184Y-76416000D01*
X117861772Y-76383297D01*
X117706900Y-76319147D01*
X117567519Y-76226015D01*
X117448985Y-76107481D01*
X117355853Y-75968100D01*
X117291703Y-75813228D01*
X117259000Y-75648816D01*
X117259000Y-75481184D01*
X117291703Y-75316772D01*
X117355853Y-75161900D01*
X117448985Y-75022519D01*
X117567519Y-74903985D01*
X117706900Y-74810853D01*
X117861772Y-74746703D01*
X118026184Y-74714000D01*
X118193816Y-74714000D01*
X118358228Y-74746703D01*
X118358228Y-74746703D01*
G37*
G36*
X105978228Y-74741703D02*
G01*
X106133100Y-74805853D01*
X106272481Y-74898985D01*
X106391015Y-75017519D01*
X106484147Y-75156900D01*
X106548297Y-75311772D01*
X106581000Y-75476184D01*
X106581000Y-75643816D01*
X106548297Y-75808228D01*
X106484147Y-75963100D01*
X106391015Y-76102481D01*
X106272481Y-76221015D01*
X106133100Y-76314147D01*
X105978228Y-76378297D01*
X105813816Y-76411000D01*
X105646184Y-76411000D01*
X105481772Y-76378297D01*
X105326900Y-76314147D01*
X105187519Y-76221015D01*
X105068985Y-76102481D01*
X104975853Y-75963100D01*
X104911703Y-75808228D01*
X104879000Y-75643816D01*
X104879000Y-75476184D01*
X104911703Y-75311772D01*
X104975853Y-75156900D01*
X105068985Y-75017519D01*
X105187519Y-74898985D01*
X105326900Y-74805853D01*
X105481772Y-74741703D01*
X105646184Y-74709000D01*
X105813816Y-74709000D01*
X105978228Y-74741703D01*
X105978228Y-74741703D01*
G37*
G36*
X103081000Y-76411000D02*
G01*
X101379000Y-76411000D01*
X101379000Y-74709000D01*
X103081000Y-74709000D01*
X103081000Y-76411000D01*
X103081000Y-76411000D01*
G37*
G36*
X94191000Y-76411000D02*
G01*
X92489000Y-76411000D01*
X92489000Y-74709000D01*
X94191000Y-74709000D01*
X94191000Y-76411000D01*
X94191000Y-76411000D01*
G37*
G36*
X97088228Y-74741703D02*
G01*
X97243100Y-74805853D01*
X97382481Y-74898985D01*
X97501015Y-75017519D01*
X97594147Y-75156900D01*
X97658297Y-75311772D01*
X97691000Y-75476184D01*
X97691000Y-75643816D01*
X97658297Y-75808228D01*
X97594147Y-75963100D01*
X97501015Y-76102481D01*
X97382481Y-76221015D01*
X97243100Y-76314147D01*
X97088228Y-76378297D01*
X96923816Y-76411000D01*
X96756184Y-76411000D01*
X96591772Y-76378297D01*
X96436900Y-76314147D01*
X96297519Y-76221015D01*
X96178985Y-76102481D01*
X96085853Y-75963100D01*
X96021703Y-75808228D01*
X95989000Y-75643816D01*
X95989000Y-75476184D01*
X96021703Y-75311772D01*
X96085853Y-75156900D01*
X96178985Y-75017519D01*
X96297519Y-74898985D01*
X96436900Y-74805853D01*
X96591772Y-74741703D01*
X96756184Y-74709000D01*
X96923816Y-74709000D01*
X97088228Y-74741703D01*
X97088228Y-74741703D01*
G37*
G36*
X49056823Y-74721313D02*
G01*
X49217242Y-74769976D01*
X49293717Y-74810853D01*
X49365078Y-74848996D01*
X49494659Y-74955341D01*
X49601004Y-75084922D01*
X49601005Y-75084924D01*
X49680024Y-75232758D01*
X49728687Y-75393177D01*
X49745117Y-75560000D01*
X49728687Y-75726823D01*
X49702476Y-75813228D01*
X49681281Y-75883100D01*
X49680024Y-75887242D01*
X49639477Y-75963100D01*
X49601004Y-76035078D01*
X49494659Y-76164659D01*
X49365078Y-76271004D01*
X49365076Y-76271005D01*
X49217242Y-76350024D01*
X49217239Y-76350025D01*
X49187380Y-76359083D01*
X49056823Y-76398687D01*
X48931804Y-76411000D01*
X48848196Y-76411000D01*
X48723177Y-76398687D01*
X48592620Y-76359083D01*
X48562761Y-76350025D01*
X48562758Y-76350024D01*
X48414924Y-76271005D01*
X48414922Y-76271004D01*
X48285341Y-76164659D01*
X48178996Y-76035078D01*
X48140523Y-75963100D01*
X48099976Y-75887242D01*
X48098720Y-75883100D01*
X48077524Y-75813228D01*
X48051313Y-75726823D01*
X48034883Y-75560000D01*
X48051313Y-75393177D01*
X48099976Y-75232758D01*
X48178995Y-75084924D01*
X48178996Y-75084922D01*
X48285341Y-74955341D01*
X48414922Y-74848996D01*
X48486283Y-74810853D01*
X48562758Y-74769976D01*
X48723177Y-74721313D01*
X48848196Y-74709000D01*
X48931804Y-74709000D01*
X49056823Y-74721313D01*
X49056823Y-74721313D01*
G37*
G36*
X129695331Y-72848211D02*
G01*
X130023092Y-72983974D01*
X130318070Y-73181072D01*
X130568928Y-73431930D01*
X130766026Y-73726908D01*
X130901789Y-74054669D01*
X130971000Y-74402616D01*
X130971000Y-74757384D01*
X130901789Y-75105331D01*
X130766026Y-75433092D01*
X130568928Y-75728070D01*
X130318070Y-75978928D01*
X130023092Y-76176026D01*
X129695331Y-76311789D01*
X129347384Y-76381000D01*
X128992616Y-76381000D01*
X128644669Y-76311789D01*
X128316908Y-76176026D01*
X128021930Y-75978928D01*
X127771072Y-75728070D01*
X127573974Y-75433092D01*
X127438211Y-75105331D01*
X127369000Y-74757384D01*
X127369000Y-74402616D01*
X127438211Y-74054669D01*
X127573974Y-73726908D01*
X127771072Y-73431930D01*
X128021930Y-73181072D01*
X128316908Y-72983974D01*
X128644669Y-72848211D01*
X128992616Y-72779000D01*
X129347384Y-72779000D01*
X129695331Y-72848211D01*
X129695331Y-72848211D01*
G37*
G36*
X85968228Y-74661703D02*
G01*
X86123100Y-74725853D01*
X86262481Y-74818985D01*
X86381015Y-74937519D01*
X86474147Y-75076900D01*
X86538297Y-75231772D01*
X86571000Y-75396184D01*
X86571000Y-75563816D01*
X86538297Y-75728228D01*
X86474147Y-75883100D01*
X86381015Y-76022481D01*
X86262481Y-76141015D01*
X86123100Y-76234147D01*
X85968228Y-76298297D01*
X85803816Y-76331000D01*
X85636184Y-76331000D01*
X85471772Y-76298297D01*
X85316900Y-76234147D01*
X85177519Y-76141015D01*
X85058985Y-76022481D01*
X84965853Y-75883100D01*
X84901703Y-75728228D01*
X84869000Y-75563816D01*
X84869000Y-75396184D01*
X84901703Y-75231772D01*
X84965853Y-75076900D01*
X85058985Y-74937519D01*
X85177519Y-74818985D01*
X85316900Y-74725853D01*
X85471772Y-74661703D01*
X85636184Y-74629000D01*
X85803816Y-74629000D01*
X85968228Y-74661703D01*
X85968228Y-74661703D01*
G37*
G36*
X44901000Y-73921000D02*
G01*
X43099000Y-73921000D01*
X43099000Y-72119000D01*
X44901000Y-72119000D01*
X44901000Y-73921000D01*
X44901000Y-73921000D01*
G37*
G36*
X112643228Y-72161703D02*
G01*
X112798100Y-72225853D01*
X112937481Y-72318985D01*
X113056015Y-72437519D01*
X113149147Y-72576900D01*
X113213297Y-72731772D01*
X113246000Y-72896184D01*
X113246000Y-73063816D01*
X113213297Y-73228228D01*
X113149147Y-73383100D01*
X113056015Y-73522481D01*
X112937481Y-73641015D01*
X112798100Y-73734147D01*
X112643228Y-73798297D01*
X112478816Y-73831000D01*
X112311184Y-73831000D01*
X112146772Y-73798297D01*
X111991900Y-73734147D01*
X111852519Y-73641015D01*
X111733985Y-73522481D01*
X111640853Y-73383100D01*
X111576703Y-73228228D01*
X111544000Y-73063816D01*
X111544000Y-72896184D01*
X111576703Y-72731772D01*
X111640853Y-72576900D01*
X111733985Y-72437519D01*
X111852519Y-72318985D01*
X111991900Y-72225853D01*
X112146772Y-72161703D01*
X112311184Y-72129000D01*
X112478816Y-72129000D01*
X112643228Y-72161703D01*
X112643228Y-72161703D01*
G37*
G36*
X72198228Y-71566703D02*
G01*
X72353100Y-71630853D01*
X72492481Y-71723985D01*
X72611015Y-71842519D01*
X72704147Y-71981900D01*
X72768297Y-72136772D01*
X72801000Y-72301184D01*
X72801000Y-72468816D01*
X72768297Y-72633228D01*
X72704147Y-72788100D01*
X72611015Y-72927481D01*
X72492481Y-73046015D01*
X72353100Y-73139147D01*
X72198228Y-73203297D01*
X72033816Y-73236000D01*
X71866184Y-73236000D01*
X71701772Y-73203297D01*
X71546900Y-73139147D01*
X71407519Y-73046015D01*
X71288985Y-72927481D01*
X71195853Y-72788100D01*
X71131703Y-72633228D01*
X71099000Y-72468816D01*
X71099000Y-72301184D01*
X71131703Y-72136772D01*
X71195853Y-71981900D01*
X71288985Y-71842519D01*
X71407519Y-71723985D01*
X71546900Y-71630853D01*
X71701772Y-71566703D01*
X71866184Y-71534000D01*
X72033816Y-71534000D01*
X72198228Y-71566703D01*
X72198228Y-71566703D01*
G37*
G36*
X77078228Y-71566703D02*
G01*
X77233100Y-71630853D01*
X77372481Y-71723985D01*
X77491015Y-71842519D01*
X77584147Y-71981900D01*
X77648297Y-72136772D01*
X77681000Y-72301184D01*
X77681000Y-72468816D01*
X77648297Y-72633228D01*
X77584147Y-72788100D01*
X77491015Y-72927481D01*
X77372481Y-73046015D01*
X77233100Y-73139147D01*
X77078228Y-73203297D01*
X76913816Y-73236000D01*
X76746184Y-73236000D01*
X76581772Y-73203297D01*
X76426900Y-73139147D01*
X76287519Y-73046015D01*
X76168985Y-72927481D01*
X76075853Y-72788100D01*
X76011703Y-72633228D01*
X75979000Y-72468816D01*
X75979000Y-72301184D01*
X76011703Y-72136772D01*
X76075853Y-71981900D01*
X76168985Y-71842519D01*
X76287519Y-71723985D01*
X76426900Y-71630853D01*
X76581772Y-71566703D01*
X76746184Y-71534000D01*
X76913816Y-71534000D01*
X77078228Y-71566703D01*
X77078228Y-71566703D01*
G37*
G36*
X85968228Y-69661703D02*
G01*
X86123100Y-69725853D01*
X86262481Y-69818985D01*
X86381015Y-69937519D01*
X86474147Y-70076900D01*
X86538297Y-70231772D01*
X86571000Y-70396184D01*
X86571000Y-70563816D01*
X86538297Y-70728228D01*
X86474147Y-70883100D01*
X86381015Y-71022481D01*
X86262481Y-71141015D01*
X86123100Y-71234147D01*
X85968228Y-71298297D01*
X85803816Y-71331000D01*
X85636184Y-71331000D01*
X85471772Y-71298297D01*
X85316900Y-71234147D01*
X85177519Y-71141015D01*
X85058985Y-71022481D01*
X84965853Y-70883100D01*
X84901703Y-70728228D01*
X84869000Y-70563816D01*
X84869000Y-70396184D01*
X84901703Y-70231772D01*
X84965853Y-70076900D01*
X85058985Y-69937519D01*
X85177519Y-69818985D01*
X85316900Y-69725853D01*
X85471772Y-69661703D01*
X85636184Y-69629000D01*
X85803816Y-69629000D01*
X85968228Y-69661703D01*
X85968228Y-69661703D01*
G37*
G36*
X112643228Y-69661703D02*
G01*
X112798100Y-69725853D01*
X112937481Y-69818985D01*
X113056015Y-69937519D01*
X113149147Y-70076900D01*
X113213297Y-70231772D01*
X113246000Y-70396184D01*
X113246000Y-70563816D01*
X113213297Y-70728228D01*
X113149147Y-70883100D01*
X113056015Y-71022481D01*
X112937481Y-71141015D01*
X112798100Y-71234147D01*
X112643228Y-71298297D01*
X112478816Y-71331000D01*
X112311184Y-71331000D01*
X112146772Y-71298297D01*
X111991900Y-71234147D01*
X111852519Y-71141015D01*
X111733985Y-71022481D01*
X111640853Y-70883100D01*
X111576703Y-70728228D01*
X111544000Y-70563816D01*
X111544000Y-70396184D01*
X111576703Y-70231772D01*
X111640853Y-70076900D01*
X111733985Y-69937519D01*
X111852519Y-69818985D01*
X111991900Y-69725853D01*
X112146772Y-69661703D01*
X112311184Y-69629000D01*
X112478816Y-69629000D01*
X112643228Y-69661703D01*
X112643228Y-69661703D01*
G37*
G36*
X124573512Y-68913927D02*
G01*
X124722812Y-68943624D01*
X124886784Y-69011544D01*
X125034354Y-69110147D01*
X125159853Y-69235646D01*
X125258456Y-69383216D01*
X125326376Y-69547188D01*
X125337405Y-69602638D01*
X125344516Y-69626078D01*
X125356067Y-69647689D01*
X125371613Y-69666631D01*
X125390555Y-69682176D01*
X125412165Y-69693727D01*
X125435614Y-69700840D01*
X125460000Y-69703242D01*
X125484387Y-69700840D01*
X125507835Y-69693727D01*
X125529446Y-69682176D01*
X125548388Y-69666630D01*
X125563933Y-69647688D01*
X125575484Y-69626078D01*
X125582595Y-69602638D01*
X125593624Y-69547188D01*
X125661544Y-69383216D01*
X125760147Y-69235646D01*
X125885646Y-69110147D01*
X126033216Y-69011544D01*
X126197188Y-68943624D01*
X126346488Y-68913927D01*
X126371258Y-68909000D01*
X126548742Y-68909000D01*
X126573512Y-68913927D01*
X126722812Y-68943624D01*
X126886784Y-69011544D01*
X127034354Y-69110147D01*
X127159853Y-69235646D01*
X127258456Y-69383216D01*
X127326376Y-69547188D01*
X127361000Y-69721259D01*
X127361000Y-69898741D01*
X127326376Y-70072812D01*
X127258456Y-70236784D01*
X127159853Y-70384354D01*
X127034354Y-70509853D01*
X126886784Y-70608456D01*
X126722812Y-70676376D01*
X126573512Y-70706073D01*
X126548742Y-70711000D01*
X126371258Y-70711000D01*
X126346488Y-70706073D01*
X126197188Y-70676376D01*
X126033216Y-70608456D01*
X125885646Y-70509853D01*
X125760147Y-70384354D01*
X125661544Y-70236784D01*
X125593624Y-70072812D01*
X125582595Y-70017362D01*
X125575484Y-69993922D01*
X125563933Y-69972311D01*
X125548387Y-69953369D01*
X125529445Y-69937824D01*
X125507835Y-69926273D01*
X125484386Y-69919160D01*
X125460000Y-69916758D01*
X125435613Y-69919160D01*
X125412165Y-69926273D01*
X125390554Y-69937824D01*
X125371612Y-69953370D01*
X125356067Y-69972312D01*
X125344516Y-69993922D01*
X125337405Y-70017362D01*
X125326376Y-70072812D01*
X125258456Y-70236784D01*
X125159853Y-70384354D01*
X125034354Y-70509853D01*
X124886784Y-70608456D01*
X124722812Y-70676376D01*
X124573512Y-70706073D01*
X124548742Y-70711000D01*
X124371258Y-70711000D01*
X124346488Y-70706073D01*
X124197188Y-70676376D01*
X124033216Y-70608456D01*
X123885646Y-70509853D01*
X123760147Y-70384354D01*
X123661544Y-70236784D01*
X123593624Y-70072812D01*
X123559000Y-69898741D01*
X123559000Y-69721259D01*
X123593624Y-69547188D01*
X123661544Y-69383216D01*
X123760147Y-69235646D01*
X123885646Y-69110147D01*
X124033216Y-69011544D01*
X124197188Y-68943624D01*
X124346488Y-68913927D01*
X124371258Y-68909000D01*
X124548742Y-68909000D01*
X124573512Y-68913927D01*
X124573512Y-68913927D01*
G37*
G36*
X54218228Y-68391703D02*
G01*
X54373100Y-68455853D01*
X54512481Y-68548985D01*
X54631015Y-68667519D01*
X54724147Y-68806900D01*
X54788297Y-68961772D01*
X54821000Y-69126184D01*
X54821000Y-69293816D01*
X54788297Y-69458228D01*
X54724147Y-69613100D01*
X54631015Y-69752481D01*
X54512481Y-69871015D01*
X54373100Y-69964147D01*
X54218228Y-70028297D01*
X54053816Y-70061000D01*
X53886184Y-70061000D01*
X53721772Y-70028297D01*
X53566900Y-69964147D01*
X53427519Y-69871015D01*
X53308985Y-69752481D01*
X53215853Y-69613100D01*
X53151703Y-69458228D01*
X53119000Y-69293816D01*
X53119000Y-69126184D01*
X53151703Y-68961772D01*
X53215853Y-68806900D01*
X53308985Y-68667519D01*
X53427519Y-68548985D01*
X53566900Y-68455853D01*
X53721772Y-68391703D01*
X53886184Y-68359000D01*
X54053816Y-68359000D01*
X54218228Y-68391703D01*
X54218228Y-68391703D01*
G37*
G36*
X77063642Y-67169781D02*
G01*
X77187920Y-67221259D01*
X77209416Y-67230163D01*
X77340608Y-67317822D01*
X77452178Y-67429392D01*
X77523199Y-67535684D01*
X77539838Y-67560586D01*
X77600219Y-67706358D01*
X77631000Y-67861107D01*
X77631000Y-68018893D01*
X77600219Y-68173642D01*
X77539838Y-68319414D01*
X77539837Y-68319416D01*
X77452178Y-68450608D01*
X77340608Y-68562178D01*
X77209416Y-68649837D01*
X77209415Y-68649838D01*
X77209414Y-68649838D01*
X77063642Y-68710219D01*
X76908893Y-68741000D01*
X76751107Y-68741000D01*
X76596358Y-68710219D01*
X76450586Y-68649838D01*
X76450585Y-68649838D01*
X76450584Y-68649837D01*
X76319392Y-68562178D01*
X76207822Y-68450608D01*
X76120163Y-68319416D01*
X76120162Y-68319414D01*
X76059781Y-68173642D01*
X76029000Y-68018893D01*
X76029000Y-67861107D01*
X76059781Y-67706358D01*
X76120162Y-67560586D01*
X76136801Y-67535684D01*
X76207822Y-67429392D01*
X76319392Y-67317822D01*
X76450584Y-67230163D01*
X76472080Y-67221259D01*
X76596358Y-67169781D01*
X76751107Y-67139000D01*
X76908893Y-67139000D01*
X77063642Y-67169781D01*
X77063642Y-67169781D01*
G37*
G36*
X72183642Y-67169781D02*
G01*
X72307920Y-67221259D01*
X72329416Y-67230163D01*
X72460608Y-67317822D01*
X72572178Y-67429392D01*
X72643199Y-67535684D01*
X72659838Y-67560586D01*
X72720219Y-67706358D01*
X72751000Y-67861107D01*
X72751000Y-68018893D01*
X72720219Y-68173642D01*
X72659838Y-68319414D01*
X72659837Y-68319416D01*
X72572178Y-68450608D01*
X72460608Y-68562178D01*
X72329416Y-68649837D01*
X72329415Y-68649838D01*
X72329414Y-68649838D01*
X72183642Y-68710219D01*
X72028893Y-68741000D01*
X71871107Y-68741000D01*
X71716358Y-68710219D01*
X71570586Y-68649838D01*
X71570585Y-68649838D01*
X71570584Y-68649837D01*
X71439392Y-68562178D01*
X71327822Y-68450608D01*
X71240163Y-68319416D01*
X71240162Y-68319414D01*
X71179781Y-68173642D01*
X71149000Y-68018893D01*
X71149000Y-67861107D01*
X71179781Y-67706358D01*
X71240162Y-67560586D01*
X71256801Y-67535684D01*
X71327822Y-67429392D01*
X71439392Y-67317822D01*
X71570584Y-67230163D01*
X71592080Y-67221259D01*
X71716358Y-67169781D01*
X71871107Y-67139000D01*
X72028893Y-67139000D01*
X72183642Y-67169781D01*
X72183642Y-67169781D01*
G37*
G36*
X125361000Y-66980383D02*
G01*
X125363402Y-67004769D01*
X125370515Y-67028218D01*
X125382066Y-67049829D01*
X125397611Y-67068771D01*
X125416553Y-67084316D01*
X125438164Y-67095867D01*
X125461613Y-67102980D01*
X125485999Y-67105382D01*
X125510385Y-67102980D01*
X125533834Y-67095867D01*
X125555445Y-67084316D01*
X125574387Y-67068771D01*
X125589932Y-67049829D01*
X125601477Y-67028229D01*
X125661544Y-66883216D01*
X125760147Y-66735646D01*
X125885646Y-66610147D01*
X126033216Y-66511544D01*
X126197188Y-66443624D01*
X126346488Y-66413927D01*
X126371258Y-66409000D01*
X126548742Y-66409000D01*
X126573512Y-66413927D01*
X126722812Y-66443624D01*
X126886784Y-66511544D01*
X127034354Y-66610147D01*
X127159853Y-66735646D01*
X127258456Y-66883216D01*
X127326376Y-67047188D01*
X127361000Y-67221259D01*
X127361000Y-67398741D01*
X127326376Y-67572812D01*
X127258456Y-67736784D01*
X127159853Y-67884354D01*
X127034354Y-68009853D01*
X126886784Y-68108456D01*
X126722812Y-68176376D01*
X126573512Y-68206073D01*
X126548742Y-68211000D01*
X126371258Y-68211000D01*
X126346488Y-68206073D01*
X126197188Y-68176376D01*
X126033216Y-68108456D01*
X125885646Y-68009853D01*
X125760147Y-67884354D01*
X125661544Y-67736784D01*
X125601477Y-67591771D01*
X125589932Y-67570171D01*
X125574387Y-67551229D01*
X125555445Y-67535684D01*
X125533834Y-67524133D01*
X125510385Y-67517020D01*
X125485999Y-67514618D01*
X125461613Y-67517020D01*
X125438164Y-67524133D01*
X125416553Y-67535684D01*
X125397611Y-67551229D01*
X125382066Y-67570171D01*
X125370515Y-67591782D01*
X125363402Y-67615231D01*
X125361000Y-67639617D01*
X125361000Y-68211000D01*
X123559000Y-68211000D01*
X123559000Y-66409000D01*
X125361000Y-66409000D01*
X125361000Y-66980383D01*
X125361000Y-66980383D01*
G37*
G36*
X54218228Y-65891703D02*
G01*
X54373100Y-65955853D01*
X54512481Y-66048985D01*
X54631015Y-66167519D01*
X54724147Y-66306900D01*
X54788297Y-66461772D01*
X54821000Y-66626184D01*
X54821000Y-66793816D01*
X54788297Y-66958228D01*
X54724147Y-67113100D01*
X54631015Y-67252481D01*
X54512481Y-67371015D01*
X54373100Y-67464147D01*
X54218228Y-67528297D01*
X54053816Y-67561000D01*
X53886184Y-67561000D01*
X53721772Y-67528297D01*
X53566900Y-67464147D01*
X53427519Y-67371015D01*
X53308985Y-67252481D01*
X53215853Y-67113100D01*
X53151703Y-66958228D01*
X53119000Y-66793816D01*
X53119000Y-66626184D01*
X53151703Y-66461772D01*
X53215853Y-66306900D01*
X53308985Y-66167519D01*
X53427519Y-66048985D01*
X53566900Y-65955853D01*
X53721772Y-65891703D01*
X53886184Y-65859000D01*
X54053816Y-65859000D01*
X54218228Y-65891703D01*
X54218228Y-65891703D01*
G37*
G36*
X94858228Y-65851703D02*
G01*
X95013100Y-65915853D01*
X95152481Y-66008985D01*
X95271015Y-66127519D01*
X95364147Y-66266900D01*
X95428297Y-66421772D01*
X95461000Y-66586184D01*
X95461000Y-66753816D01*
X95428297Y-66918228D01*
X95364147Y-67073100D01*
X95271015Y-67212481D01*
X95152481Y-67331015D01*
X95013100Y-67424147D01*
X94858228Y-67488297D01*
X94693816Y-67521000D01*
X94526184Y-67521000D01*
X94361772Y-67488297D01*
X94206900Y-67424147D01*
X94067519Y-67331015D01*
X93948985Y-67212481D01*
X93855853Y-67073100D01*
X93791703Y-66918228D01*
X93759000Y-66753816D01*
X93759000Y-66586184D01*
X93791703Y-66421772D01*
X93855853Y-66266900D01*
X93948985Y-66127519D01*
X94067519Y-66008985D01*
X94206900Y-65915853D01*
X94361772Y-65851703D01*
X94526184Y-65819000D01*
X94693816Y-65819000D01*
X94858228Y-65851703D01*
X94858228Y-65851703D01*
G37*
G36*
X84616823Y-65831313D02*
G01*
X84777242Y-65879976D01*
X84909906Y-65950886D01*
X84925078Y-65958996D01*
X85054659Y-66065341D01*
X85161004Y-66194922D01*
X85161059Y-66195025D01*
X85240024Y-66342758D01*
X85288687Y-66503177D01*
X85305117Y-66670000D01*
X85288687Y-66836823D01*
X85240024Y-66997242D01*
X85169114Y-67129906D01*
X85161004Y-67145078D01*
X85054659Y-67274659D01*
X84925078Y-67381004D01*
X84925076Y-67381005D01*
X84777242Y-67460024D01*
X84777239Y-67460025D01*
X84763647Y-67464148D01*
X84616823Y-67508687D01*
X84491804Y-67521000D01*
X84408196Y-67521000D01*
X84283177Y-67508687D01*
X84136353Y-67464148D01*
X84122761Y-67460025D01*
X84122758Y-67460024D01*
X83974924Y-67381005D01*
X83974922Y-67381004D01*
X83845341Y-67274659D01*
X83738996Y-67145078D01*
X83730886Y-67129906D01*
X83659976Y-66997242D01*
X83611313Y-66836823D01*
X83594883Y-66670000D01*
X83611313Y-66503177D01*
X83659976Y-66342758D01*
X83738941Y-66195025D01*
X83738996Y-66194922D01*
X83845341Y-66065341D01*
X83974922Y-65958996D01*
X83990094Y-65950886D01*
X84122758Y-65879976D01*
X84283177Y-65831313D01*
X84408196Y-65819000D01*
X84491804Y-65819000D01*
X84616823Y-65831313D01*
X84616823Y-65831313D01*
G37*
G36*
X97316823Y-65831313D02*
G01*
X97477242Y-65879976D01*
X97609906Y-65950886D01*
X97625078Y-65958996D01*
X97754659Y-66065341D01*
X97861004Y-66194922D01*
X97861059Y-66195025D01*
X97940024Y-66342758D01*
X97988687Y-66503177D01*
X98005117Y-66670000D01*
X97988687Y-66836823D01*
X97940024Y-66997242D01*
X97869114Y-67129906D01*
X97861004Y-67145078D01*
X97754659Y-67274659D01*
X97625078Y-67381004D01*
X97625076Y-67381005D01*
X97477242Y-67460024D01*
X97477239Y-67460025D01*
X97463647Y-67464148D01*
X97316823Y-67508687D01*
X97191804Y-67521000D01*
X97108196Y-67521000D01*
X96983177Y-67508687D01*
X96836353Y-67464148D01*
X96822761Y-67460025D01*
X96822758Y-67460024D01*
X96674924Y-67381005D01*
X96674922Y-67381004D01*
X96545341Y-67274659D01*
X96438996Y-67145078D01*
X96430886Y-67129906D01*
X96359976Y-66997242D01*
X96311313Y-66836823D01*
X96294883Y-66670000D01*
X96311313Y-66503177D01*
X96359976Y-66342758D01*
X96438941Y-66195025D01*
X96438996Y-66194922D01*
X96545341Y-66065341D01*
X96674922Y-65958996D01*
X96690094Y-65950886D01*
X96822758Y-65879976D01*
X96983177Y-65831313D01*
X97108196Y-65819000D01*
X97191804Y-65819000D01*
X97316823Y-65831313D01*
X97316823Y-65831313D01*
G37*
G36*
X107558228Y-65851703D02*
G01*
X107713100Y-65915853D01*
X107852481Y-66008985D01*
X107971015Y-66127519D01*
X108064147Y-66266900D01*
X108128297Y-66421772D01*
X108161000Y-66586184D01*
X108161000Y-66753816D01*
X108128297Y-66918228D01*
X108064147Y-67073100D01*
X107971015Y-67212481D01*
X107852481Y-67331015D01*
X107713100Y-67424147D01*
X107558228Y-67488297D01*
X107393816Y-67521000D01*
X107226184Y-67521000D01*
X107061772Y-67488297D01*
X106906900Y-67424147D01*
X106767519Y-67331015D01*
X106648985Y-67212481D01*
X106555853Y-67073100D01*
X106491703Y-66918228D01*
X106459000Y-66753816D01*
X106459000Y-66586184D01*
X106491703Y-66421772D01*
X106555853Y-66266900D01*
X106648985Y-66127519D01*
X106767519Y-66008985D01*
X106906900Y-65915853D01*
X107061772Y-65851703D01*
X107226184Y-65819000D01*
X107393816Y-65819000D01*
X107558228Y-65851703D01*
X107558228Y-65851703D01*
G37*
G36*
X118276823Y-64566313D02*
G01*
X118437242Y-64614976D01*
X118569906Y-64685886D01*
X118585078Y-64693996D01*
X118714659Y-64800341D01*
X118821004Y-64929922D01*
X118821005Y-64929924D01*
X118900024Y-65077758D01*
X118948687Y-65238177D01*
X118965117Y-65405000D01*
X118948687Y-65571823D01*
X118900024Y-65732242D01*
X118853651Y-65819000D01*
X118821004Y-65880078D01*
X118714659Y-66009659D01*
X118585078Y-66116004D01*
X118585076Y-66116005D01*
X118437242Y-66195024D01*
X118276823Y-66243687D01*
X118151804Y-66256000D01*
X118068196Y-66256000D01*
X117943177Y-66243687D01*
X117782758Y-66195024D01*
X117634924Y-66116005D01*
X117634922Y-66116004D01*
X117505341Y-66009659D01*
X117398996Y-65880078D01*
X117366349Y-65819000D01*
X117319976Y-65732242D01*
X117271313Y-65571823D01*
X117254883Y-65405000D01*
X117271313Y-65238177D01*
X117319976Y-65077758D01*
X117398995Y-64929924D01*
X117398996Y-64929922D01*
X117505341Y-64800341D01*
X117634922Y-64693996D01*
X117650094Y-64685886D01*
X117782758Y-64614976D01*
X117943177Y-64566313D01*
X118068196Y-64554000D01*
X118151804Y-64554000D01*
X118276823Y-64566313D01*
X118276823Y-64566313D01*
G37*
G36*
X49138228Y-64581703D02*
G01*
X49293100Y-64645853D01*
X49432481Y-64738985D01*
X49551015Y-64857519D01*
X49644147Y-64996900D01*
X49708297Y-65151772D01*
X49741000Y-65316184D01*
X49741000Y-65483816D01*
X49708297Y-65648228D01*
X49644147Y-65803100D01*
X49551015Y-65942481D01*
X49432481Y-66061015D01*
X49293100Y-66154147D01*
X49138228Y-66218297D01*
X48973816Y-66251000D01*
X48806184Y-66251000D01*
X48641772Y-66218297D01*
X48486900Y-66154147D01*
X48347519Y-66061015D01*
X48228985Y-65942481D01*
X48135853Y-65803100D01*
X48071703Y-65648228D01*
X48039000Y-65483816D01*
X48039000Y-65316184D01*
X48071703Y-65151772D01*
X48135853Y-64996900D01*
X48228985Y-64857519D01*
X48347519Y-64738985D01*
X48486900Y-64645853D01*
X48641772Y-64581703D01*
X48806184Y-64549000D01*
X48973816Y-64549000D01*
X49138228Y-64581703D01*
X49138228Y-64581703D01*
G37*
G36*
X115178228Y-64581703D02*
G01*
X115333100Y-64645853D01*
X115472481Y-64738985D01*
X115591015Y-64857519D01*
X115684147Y-64996900D01*
X115748297Y-65151772D01*
X115781000Y-65316184D01*
X115781000Y-65483816D01*
X115748297Y-65648228D01*
X115684147Y-65803100D01*
X115591015Y-65942481D01*
X115472481Y-66061015D01*
X115333100Y-66154147D01*
X115178228Y-66218297D01*
X115013816Y-66251000D01*
X114846184Y-66251000D01*
X114681772Y-66218297D01*
X114526900Y-66154147D01*
X114387519Y-66061015D01*
X114268985Y-65942481D01*
X114175853Y-65803100D01*
X114111703Y-65648228D01*
X114079000Y-65483816D01*
X114079000Y-65316184D01*
X114111703Y-65151772D01*
X114175853Y-64996900D01*
X114268985Y-64857519D01*
X114387519Y-64738985D01*
X114526900Y-64645853D01*
X114681772Y-64581703D01*
X114846184Y-64549000D01*
X115013816Y-64549000D01*
X115178228Y-64581703D01*
X115178228Y-64581703D01*
G37*
G36*
X129695331Y-60808211D02*
G01*
X130023092Y-60943974D01*
X130318070Y-61141072D01*
X130568928Y-61391930D01*
X130766026Y-61686908D01*
X130901789Y-62014669D01*
X130971000Y-62362616D01*
X130971000Y-62717384D01*
X130901789Y-63065331D01*
X130766026Y-63393092D01*
X130568928Y-63688070D01*
X130318070Y-63938928D01*
X130023092Y-64136026D01*
X129695331Y-64271789D01*
X129347384Y-64341000D01*
X128992616Y-64341000D01*
X128644669Y-64271789D01*
X128316908Y-64136026D01*
X128021930Y-63938928D01*
X127771072Y-63688070D01*
X127573974Y-63393092D01*
X127438211Y-63065331D01*
X127369000Y-62717384D01*
X127369000Y-62362616D01*
X127438211Y-62014669D01*
X127573974Y-61686908D01*
X127771072Y-61391930D01*
X128021930Y-61141072D01*
X128316908Y-60943974D01*
X128644669Y-60808211D01*
X128992616Y-60739000D01*
X129347384Y-60739000D01*
X129695331Y-60808211D01*
X129695331Y-60808211D01*
G37*
G36*
X44110443Y-61965519D02*
G01*
X44176627Y-61972037D01*
X44346466Y-62023557D01*
X44502991Y-62107222D01*
X44538729Y-62136552D01*
X44640186Y-62219814D01*
X44723448Y-62321271D01*
X44752778Y-62357009D01*
X44836443Y-62513534D01*
X44887963Y-62683373D01*
X44905359Y-62860000D01*
X44887963Y-63036627D01*
X44836443Y-63206466D01*
X44752778Y-63362991D01*
X44728074Y-63393093D01*
X44640186Y-63500186D01*
X44538729Y-63583448D01*
X44502991Y-63612778D01*
X44346466Y-63696443D01*
X44176627Y-63747963D01*
X44110443Y-63754481D01*
X44044260Y-63761000D01*
X43955740Y-63761000D01*
X43889557Y-63754481D01*
X43823373Y-63747963D01*
X43653534Y-63696443D01*
X43497009Y-63612778D01*
X43461271Y-63583448D01*
X43359814Y-63500186D01*
X43271926Y-63393093D01*
X43247222Y-63362991D01*
X43163557Y-63206466D01*
X43112037Y-63036627D01*
X43094641Y-62860000D01*
X43112037Y-62683373D01*
X43163557Y-62513534D01*
X43247222Y-62357009D01*
X43276552Y-62321271D01*
X43359814Y-62219814D01*
X43461271Y-62136552D01*
X43497009Y-62107222D01*
X43653534Y-62023557D01*
X43823373Y-61972037D01*
X43889557Y-61965519D01*
X43955740Y-61959000D01*
X44044260Y-61959000D01*
X44110443Y-61965519D01*
X44110443Y-61965519D01*
G37*
G36*
X76996823Y-62021313D02*
G01*
X77157242Y-62069976D01*
X77226922Y-62107221D01*
X77305078Y-62148996D01*
X77434659Y-62255341D01*
X77541004Y-62384922D01*
X77541005Y-62384924D01*
X77620024Y-62532758D01*
X77668687Y-62693177D01*
X77685117Y-62860000D01*
X77668687Y-63026823D01*
X77620024Y-63187242D01*
X77609747Y-63206468D01*
X77541004Y-63335078D01*
X77434659Y-63464659D01*
X77305078Y-63571004D01*
X77305076Y-63571005D01*
X77157242Y-63650024D01*
X76996823Y-63698687D01*
X76871804Y-63711000D01*
X76788196Y-63711000D01*
X76663177Y-63698687D01*
X76502758Y-63650024D01*
X76354924Y-63571005D01*
X76354922Y-63571004D01*
X76225341Y-63464659D01*
X76118996Y-63335078D01*
X76050253Y-63206468D01*
X76039976Y-63187242D01*
X75991313Y-63026823D01*
X75974883Y-62860000D01*
X75991313Y-62693177D01*
X76039976Y-62532758D01*
X76118995Y-62384924D01*
X76118996Y-62384922D01*
X76225341Y-62255341D01*
X76354922Y-62148996D01*
X76433078Y-62107221D01*
X76502758Y-62069976D01*
X76663177Y-62021313D01*
X76788196Y-62009000D01*
X76871804Y-62009000D01*
X76996823Y-62021313D01*
X76996823Y-62021313D01*
G37*
G36*
X74456823Y-62021313D02*
G01*
X74617242Y-62069976D01*
X74686922Y-62107221D01*
X74765078Y-62148996D01*
X74894659Y-62255341D01*
X75001004Y-62384922D01*
X75001005Y-62384924D01*
X75080024Y-62532758D01*
X75128687Y-62693177D01*
X75145117Y-62860000D01*
X75128687Y-63026823D01*
X75080024Y-63187242D01*
X75069747Y-63206468D01*
X75001004Y-63335078D01*
X74894659Y-63464659D01*
X74765078Y-63571004D01*
X74765076Y-63571005D01*
X74617242Y-63650024D01*
X74456823Y-63698687D01*
X74331804Y-63711000D01*
X74248196Y-63711000D01*
X74123177Y-63698687D01*
X73962758Y-63650024D01*
X73814924Y-63571005D01*
X73814922Y-63571004D01*
X73685341Y-63464659D01*
X73578996Y-63335078D01*
X73510253Y-63206468D01*
X73499976Y-63187242D01*
X73451313Y-63026823D01*
X73434883Y-62860000D01*
X73451313Y-62693177D01*
X73499976Y-62532758D01*
X73578995Y-62384924D01*
X73578996Y-62384922D01*
X73685341Y-62255341D01*
X73814922Y-62148996D01*
X73893078Y-62107221D01*
X73962758Y-62069976D01*
X74123177Y-62021313D01*
X74248196Y-62009000D01*
X74331804Y-62009000D01*
X74456823Y-62021313D01*
X74456823Y-62021313D01*
G37*
G36*
X71916823Y-62021313D02*
G01*
X72077242Y-62069976D01*
X72146922Y-62107221D01*
X72225078Y-62148996D01*
X72354659Y-62255341D01*
X72461004Y-62384922D01*
X72461005Y-62384924D01*
X72540024Y-62532758D01*
X72588687Y-62693177D01*
X72605117Y-62860000D01*
X72588687Y-63026823D01*
X72540024Y-63187242D01*
X72529747Y-63206468D01*
X72461004Y-63335078D01*
X72354659Y-63464659D01*
X72225078Y-63571004D01*
X72225076Y-63571005D01*
X72077242Y-63650024D01*
X71916823Y-63698687D01*
X71791804Y-63711000D01*
X71708196Y-63711000D01*
X71583177Y-63698687D01*
X71422758Y-63650024D01*
X71274924Y-63571005D01*
X71274922Y-63571004D01*
X71145341Y-63464659D01*
X71038996Y-63335078D01*
X70970253Y-63206468D01*
X70959976Y-63187242D01*
X70911313Y-63026823D01*
X70894883Y-62860000D01*
X70911313Y-62693177D01*
X70959976Y-62532758D01*
X71038995Y-62384924D01*
X71038996Y-62384922D01*
X71145341Y-62255341D01*
X71274922Y-62148996D01*
X71353078Y-62107221D01*
X71422758Y-62069976D01*
X71583177Y-62021313D01*
X71708196Y-62009000D01*
X71791804Y-62009000D01*
X71916823Y-62021313D01*
X71916823Y-62021313D01*
G37*
G36*
X69376823Y-62021313D02*
G01*
X69537242Y-62069976D01*
X69606922Y-62107221D01*
X69685078Y-62148996D01*
X69814659Y-62255341D01*
X69921004Y-62384922D01*
X69921005Y-62384924D01*
X70000024Y-62532758D01*
X70048687Y-62693177D01*
X70065117Y-62860000D01*
X70048687Y-63026823D01*
X70000024Y-63187242D01*
X69989747Y-63206468D01*
X69921004Y-63335078D01*
X69814659Y-63464659D01*
X69685078Y-63571004D01*
X69685076Y-63571005D01*
X69537242Y-63650024D01*
X69376823Y-63698687D01*
X69251804Y-63711000D01*
X69168196Y-63711000D01*
X69043177Y-63698687D01*
X68882758Y-63650024D01*
X68734924Y-63571005D01*
X68734922Y-63571004D01*
X68605341Y-63464659D01*
X68498996Y-63335078D01*
X68430253Y-63206468D01*
X68419976Y-63187242D01*
X68371313Y-63026823D01*
X68354883Y-62860000D01*
X68371313Y-62693177D01*
X68419976Y-62532758D01*
X68498995Y-62384924D01*
X68498996Y-62384922D01*
X68605341Y-62255341D01*
X68734922Y-62148996D01*
X68813078Y-62107221D01*
X68882758Y-62069976D01*
X69043177Y-62021313D01*
X69168196Y-62009000D01*
X69251804Y-62009000D01*
X69376823Y-62021313D01*
X69376823Y-62021313D01*
G37*
G36*
X66836823Y-62021313D02*
G01*
X66997242Y-62069976D01*
X67066922Y-62107221D01*
X67145078Y-62148996D01*
X67274659Y-62255341D01*
X67381004Y-62384922D01*
X67381005Y-62384924D01*
X67460024Y-62532758D01*
X67508687Y-62693177D01*
X67525117Y-62860000D01*
X67508687Y-63026823D01*
X67460024Y-63187242D01*
X67449747Y-63206468D01*
X67381004Y-63335078D01*
X67274659Y-63464659D01*
X67145078Y-63571004D01*
X67145076Y-63571005D01*
X66997242Y-63650024D01*
X66836823Y-63698687D01*
X66711804Y-63711000D01*
X66628196Y-63711000D01*
X66503177Y-63698687D01*
X66342758Y-63650024D01*
X66194924Y-63571005D01*
X66194922Y-63571004D01*
X66065341Y-63464659D01*
X65958996Y-63335078D01*
X65890253Y-63206468D01*
X65879976Y-63187242D01*
X65831313Y-63026823D01*
X65814883Y-62860000D01*
X65831313Y-62693177D01*
X65879976Y-62532758D01*
X65958995Y-62384924D01*
X65958996Y-62384922D01*
X66065341Y-62255341D01*
X66194922Y-62148996D01*
X66273078Y-62107221D01*
X66342758Y-62069976D01*
X66503177Y-62021313D01*
X66628196Y-62009000D01*
X66711804Y-62009000D01*
X66836823Y-62021313D01*
X66836823Y-62021313D01*
G37*
G36*
X98586823Y-62021313D02*
G01*
X98747242Y-62069976D01*
X98816922Y-62107221D01*
X98895078Y-62148996D01*
X99024659Y-62255341D01*
X99131004Y-62384922D01*
X99131005Y-62384924D01*
X99210024Y-62532758D01*
X99258687Y-62693177D01*
X99275117Y-62860000D01*
X99258687Y-63026823D01*
X99210024Y-63187242D01*
X99199747Y-63206468D01*
X99131004Y-63335078D01*
X99024659Y-63464659D01*
X98895078Y-63571004D01*
X98895076Y-63571005D01*
X98747242Y-63650024D01*
X98586823Y-63698687D01*
X98461804Y-63711000D01*
X98378196Y-63711000D01*
X98253177Y-63698687D01*
X98092758Y-63650024D01*
X97944924Y-63571005D01*
X97944922Y-63571004D01*
X97815341Y-63464659D01*
X97708996Y-63335078D01*
X97640253Y-63206468D01*
X97629976Y-63187242D01*
X97581313Y-63026823D01*
X97564883Y-62860000D01*
X97581313Y-62693177D01*
X97629976Y-62532758D01*
X97708995Y-62384924D01*
X97708996Y-62384922D01*
X97815341Y-62255341D01*
X97944922Y-62148996D01*
X98023078Y-62107221D01*
X98092758Y-62069976D01*
X98253177Y-62021313D01*
X98378196Y-62009000D01*
X98461804Y-62009000D01*
X98586823Y-62021313D01*
X98586823Y-62021313D01*
G37*
G36*
X56676823Y-62021313D02*
G01*
X56837242Y-62069976D01*
X56906922Y-62107221D01*
X56985078Y-62148996D01*
X57114659Y-62255341D01*
X57221004Y-62384922D01*
X57221005Y-62384924D01*
X57300024Y-62532758D01*
X57348687Y-62693177D01*
X57365117Y-62860000D01*
X57348687Y-63026823D01*
X57300024Y-63187242D01*
X57289747Y-63206468D01*
X57221004Y-63335078D01*
X57114659Y-63464659D01*
X56985078Y-63571004D01*
X56985076Y-63571005D01*
X56837242Y-63650024D01*
X56676823Y-63698687D01*
X56551804Y-63711000D01*
X56468196Y-63711000D01*
X56343177Y-63698687D01*
X56182758Y-63650024D01*
X56034924Y-63571005D01*
X56034922Y-63571004D01*
X55905341Y-63464659D01*
X55798996Y-63335078D01*
X55730253Y-63206468D01*
X55719976Y-63187242D01*
X55671313Y-63026823D01*
X55654883Y-62860000D01*
X55671313Y-62693177D01*
X55719976Y-62532758D01*
X55798995Y-62384924D01*
X55798996Y-62384922D01*
X55905341Y-62255341D01*
X56034922Y-62148996D01*
X56113078Y-62107221D01*
X56182758Y-62069976D01*
X56343177Y-62021313D01*
X56468196Y-62009000D01*
X56551804Y-62009000D01*
X56676823Y-62021313D01*
X56676823Y-62021313D01*
G37*
G36*
X59216823Y-62021313D02*
G01*
X59377242Y-62069976D01*
X59446922Y-62107221D01*
X59525078Y-62148996D01*
X59654659Y-62255341D01*
X59761004Y-62384922D01*
X59761005Y-62384924D01*
X59840024Y-62532758D01*
X59888687Y-62693177D01*
X59905117Y-62860000D01*
X59888687Y-63026823D01*
X59840024Y-63187242D01*
X59829747Y-63206468D01*
X59761004Y-63335078D01*
X59654659Y-63464659D01*
X59525078Y-63571004D01*
X59525076Y-63571005D01*
X59377242Y-63650024D01*
X59216823Y-63698687D01*
X59091804Y-63711000D01*
X59008196Y-63711000D01*
X58883177Y-63698687D01*
X58722758Y-63650024D01*
X58574924Y-63571005D01*
X58574922Y-63571004D01*
X58445341Y-63464659D01*
X58338996Y-63335078D01*
X58270253Y-63206468D01*
X58259976Y-63187242D01*
X58211313Y-63026823D01*
X58194883Y-62860000D01*
X58211313Y-62693177D01*
X58259976Y-62532758D01*
X58338995Y-62384924D01*
X58338996Y-62384922D01*
X58445341Y-62255341D01*
X58574922Y-62148996D01*
X58653078Y-62107221D01*
X58722758Y-62069976D01*
X58883177Y-62021313D01*
X59008196Y-62009000D01*
X59091804Y-62009000D01*
X59216823Y-62021313D01*
X59216823Y-62021313D01*
G37*
G36*
X61756823Y-62021313D02*
G01*
X61917242Y-62069976D01*
X61986922Y-62107221D01*
X62065078Y-62148996D01*
X62194659Y-62255341D01*
X62301004Y-62384922D01*
X62301005Y-62384924D01*
X62380024Y-62532758D01*
X62428687Y-62693177D01*
X62445117Y-62860000D01*
X62428687Y-63026823D01*
X62380024Y-63187242D01*
X62369747Y-63206468D01*
X62301004Y-63335078D01*
X62194659Y-63464659D01*
X62065078Y-63571004D01*
X62065076Y-63571005D01*
X61917242Y-63650024D01*
X61756823Y-63698687D01*
X61631804Y-63711000D01*
X61548196Y-63711000D01*
X61423177Y-63698687D01*
X61262758Y-63650024D01*
X61114924Y-63571005D01*
X61114922Y-63571004D01*
X60985341Y-63464659D01*
X60878996Y-63335078D01*
X60810253Y-63206468D01*
X60799976Y-63187242D01*
X60751313Y-63026823D01*
X60734883Y-62860000D01*
X60751313Y-62693177D01*
X60799976Y-62532758D01*
X60878995Y-62384924D01*
X60878996Y-62384922D01*
X60985341Y-62255341D01*
X61114922Y-62148996D01*
X61193078Y-62107221D01*
X61262758Y-62069976D01*
X61423177Y-62021313D01*
X61548196Y-62009000D01*
X61631804Y-62009000D01*
X61756823Y-62021313D01*
X61756823Y-62021313D01*
G37*
G36*
X64296823Y-62021313D02*
G01*
X64457242Y-62069976D01*
X64526922Y-62107221D01*
X64605078Y-62148996D01*
X64734659Y-62255341D01*
X64841004Y-62384922D01*
X64841005Y-62384924D01*
X64920024Y-62532758D01*
X64968687Y-62693177D01*
X64985117Y-62860000D01*
X64968687Y-63026823D01*
X64920024Y-63187242D01*
X64909747Y-63206468D01*
X64841004Y-63335078D01*
X64734659Y-63464659D01*
X64605078Y-63571004D01*
X64605076Y-63571005D01*
X64457242Y-63650024D01*
X64296823Y-63698687D01*
X64171804Y-63711000D01*
X64088196Y-63711000D01*
X63963177Y-63698687D01*
X63802758Y-63650024D01*
X63654924Y-63571005D01*
X63654922Y-63571004D01*
X63525341Y-63464659D01*
X63418996Y-63335078D01*
X63350253Y-63206468D01*
X63339976Y-63187242D01*
X63291313Y-63026823D01*
X63274883Y-62860000D01*
X63291313Y-62693177D01*
X63339976Y-62532758D01*
X63418995Y-62384924D01*
X63418996Y-62384922D01*
X63525341Y-62255341D01*
X63654922Y-62148996D01*
X63733078Y-62107221D01*
X63802758Y-62069976D01*
X63963177Y-62021313D01*
X64088196Y-62009000D01*
X64171804Y-62009000D01*
X64296823Y-62021313D01*
X64296823Y-62021313D01*
G37*
G36*
X54821000Y-63711000D02*
G01*
X53119000Y-63711000D01*
X53119000Y-62009000D01*
X54821000Y-62009000D01*
X54821000Y-63711000D01*
X54821000Y-63711000D01*
G37*
G36*
X82076823Y-62021313D02*
G01*
X82237242Y-62069976D01*
X82306922Y-62107221D01*
X82385078Y-62148996D01*
X82514659Y-62255341D01*
X82621004Y-62384922D01*
X82621005Y-62384924D01*
X82700024Y-62532758D01*
X82748687Y-62693177D01*
X82765117Y-62860000D01*
X82748687Y-63026823D01*
X82700024Y-63187242D01*
X82689747Y-63206468D01*
X82621004Y-63335078D01*
X82514659Y-63464659D01*
X82385078Y-63571004D01*
X82385076Y-63571005D01*
X82237242Y-63650024D01*
X82076823Y-63698687D01*
X81951804Y-63711000D01*
X81868196Y-63711000D01*
X81743177Y-63698687D01*
X81582758Y-63650024D01*
X81434924Y-63571005D01*
X81434922Y-63571004D01*
X81305341Y-63464659D01*
X81198996Y-63335078D01*
X81130253Y-63206468D01*
X81119976Y-63187242D01*
X81071313Y-63026823D01*
X81054883Y-62860000D01*
X81071313Y-62693177D01*
X81119976Y-62532758D01*
X81198995Y-62384924D01*
X81198996Y-62384922D01*
X81305341Y-62255341D01*
X81434922Y-62148996D01*
X81513078Y-62107221D01*
X81582758Y-62069976D01*
X81743177Y-62021313D01*
X81868196Y-62009000D01*
X81951804Y-62009000D01*
X82076823Y-62021313D01*
X82076823Y-62021313D01*
G37*
G36*
X84616823Y-62021313D02*
G01*
X84777242Y-62069976D01*
X84846922Y-62107221D01*
X84925078Y-62148996D01*
X85054659Y-62255341D01*
X85161004Y-62384922D01*
X85161005Y-62384924D01*
X85240024Y-62532758D01*
X85288687Y-62693177D01*
X85305117Y-62860000D01*
X85288687Y-63026823D01*
X85240024Y-63187242D01*
X85229747Y-63206468D01*
X85161004Y-63335078D01*
X85054659Y-63464659D01*
X84925078Y-63571004D01*
X84925076Y-63571005D01*
X84777242Y-63650024D01*
X84616823Y-63698687D01*
X84491804Y-63711000D01*
X84408196Y-63711000D01*
X84283177Y-63698687D01*
X84122758Y-63650024D01*
X83974924Y-63571005D01*
X83974922Y-63571004D01*
X83845341Y-63464659D01*
X83738996Y-63335078D01*
X83670253Y-63206468D01*
X83659976Y-63187242D01*
X83611313Y-63026823D01*
X83594883Y-62860000D01*
X83611313Y-62693177D01*
X83659976Y-62532758D01*
X83738995Y-62384924D01*
X83738996Y-62384922D01*
X83845341Y-62255341D01*
X83974922Y-62148996D01*
X84053078Y-62107221D01*
X84122758Y-62069976D01*
X84283177Y-62021313D01*
X84408196Y-62009000D01*
X84491804Y-62009000D01*
X84616823Y-62021313D01*
X84616823Y-62021313D01*
G37*
G36*
X87156823Y-62021313D02*
G01*
X87317242Y-62069976D01*
X87386922Y-62107221D01*
X87465078Y-62148996D01*
X87594659Y-62255341D01*
X87701004Y-62384922D01*
X87701005Y-62384924D01*
X87780024Y-62532758D01*
X87828687Y-62693177D01*
X87845117Y-62860000D01*
X87828687Y-63026823D01*
X87780024Y-63187242D01*
X87769747Y-63206468D01*
X87701004Y-63335078D01*
X87594659Y-63464659D01*
X87465078Y-63571004D01*
X87465076Y-63571005D01*
X87317242Y-63650024D01*
X87156823Y-63698687D01*
X87031804Y-63711000D01*
X86948196Y-63711000D01*
X86823177Y-63698687D01*
X86662758Y-63650024D01*
X86514924Y-63571005D01*
X86514922Y-63571004D01*
X86385341Y-63464659D01*
X86278996Y-63335078D01*
X86210253Y-63206468D01*
X86199976Y-63187242D01*
X86151313Y-63026823D01*
X86134883Y-62860000D01*
X86151313Y-62693177D01*
X86199976Y-62532758D01*
X86278995Y-62384924D01*
X86278996Y-62384922D01*
X86385341Y-62255341D01*
X86514922Y-62148996D01*
X86593078Y-62107221D01*
X86662758Y-62069976D01*
X86823177Y-62021313D01*
X86948196Y-62009000D01*
X87031804Y-62009000D01*
X87156823Y-62021313D01*
X87156823Y-62021313D01*
G37*
G36*
X96046823Y-62021313D02*
G01*
X96207242Y-62069976D01*
X96276922Y-62107221D01*
X96355078Y-62148996D01*
X96484659Y-62255341D01*
X96591004Y-62384922D01*
X96591005Y-62384924D01*
X96670024Y-62532758D01*
X96718687Y-62693177D01*
X96735117Y-62860000D01*
X96718687Y-63026823D01*
X96670024Y-63187242D01*
X96659747Y-63206468D01*
X96591004Y-63335078D01*
X96484659Y-63464659D01*
X96355078Y-63571004D01*
X96355076Y-63571005D01*
X96207242Y-63650024D01*
X96046823Y-63698687D01*
X95921804Y-63711000D01*
X95838196Y-63711000D01*
X95713177Y-63698687D01*
X95552758Y-63650024D01*
X95404924Y-63571005D01*
X95404922Y-63571004D01*
X95275341Y-63464659D01*
X95168996Y-63335078D01*
X95100253Y-63206468D01*
X95089976Y-63187242D01*
X95041313Y-63026823D01*
X95024883Y-62860000D01*
X95041313Y-62693177D01*
X95089976Y-62532758D01*
X95168995Y-62384924D01*
X95168996Y-62384922D01*
X95275341Y-62255341D01*
X95404922Y-62148996D01*
X95483078Y-62107221D01*
X95552758Y-62069976D01*
X95713177Y-62021313D01*
X95838196Y-62009000D01*
X95921804Y-62009000D01*
X96046823Y-62021313D01*
X96046823Y-62021313D01*
G37*
G36*
X101126823Y-62021313D02*
G01*
X101287242Y-62069976D01*
X101356922Y-62107221D01*
X101435078Y-62148996D01*
X101564659Y-62255341D01*
X101671004Y-62384922D01*
X101671005Y-62384924D01*
X101750024Y-62532758D01*
X101798687Y-62693177D01*
X101815117Y-62860000D01*
X101798687Y-63026823D01*
X101750024Y-63187242D01*
X101739747Y-63206468D01*
X101671004Y-63335078D01*
X101564659Y-63464659D01*
X101435078Y-63571004D01*
X101435076Y-63571005D01*
X101287242Y-63650024D01*
X101126823Y-63698687D01*
X101001804Y-63711000D01*
X100918196Y-63711000D01*
X100793177Y-63698687D01*
X100632758Y-63650024D01*
X100484924Y-63571005D01*
X100484922Y-63571004D01*
X100355341Y-63464659D01*
X100248996Y-63335078D01*
X100180253Y-63206468D01*
X100169976Y-63187242D01*
X100121313Y-63026823D01*
X100104883Y-62860000D01*
X100121313Y-62693177D01*
X100169976Y-62532758D01*
X100248995Y-62384924D01*
X100248996Y-62384922D01*
X100355341Y-62255341D01*
X100484922Y-62148996D01*
X100563078Y-62107221D01*
X100632758Y-62069976D01*
X100793177Y-62021313D01*
X100918196Y-62009000D01*
X101001804Y-62009000D01*
X101126823Y-62021313D01*
X101126823Y-62021313D01*
G37*
G36*
X103666823Y-62021313D02*
G01*
X103827242Y-62069976D01*
X103896922Y-62107221D01*
X103975078Y-62148996D01*
X104104659Y-62255341D01*
X104211004Y-62384922D01*
X104211005Y-62384924D01*
X104290024Y-62532758D01*
X104338687Y-62693177D01*
X104355117Y-62860000D01*
X104338687Y-63026823D01*
X104290024Y-63187242D01*
X104279747Y-63206468D01*
X104211004Y-63335078D01*
X104104659Y-63464659D01*
X103975078Y-63571004D01*
X103975076Y-63571005D01*
X103827242Y-63650024D01*
X103666823Y-63698687D01*
X103541804Y-63711000D01*
X103458196Y-63711000D01*
X103333177Y-63698687D01*
X103172758Y-63650024D01*
X103024924Y-63571005D01*
X103024922Y-63571004D01*
X102895341Y-63464659D01*
X102788996Y-63335078D01*
X102720253Y-63206468D01*
X102709976Y-63187242D01*
X102661313Y-63026823D01*
X102644883Y-62860000D01*
X102661313Y-62693177D01*
X102709976Y-62532758D01*
X102788995Y-62384924D01*
X102788996Y-62384922D01*
X102895341Y-62255341D01*
X103024922Y-62148996D01*
X103103078Y-62107221D01*
X103172758Y-62069976D01*
X103333177Y-62021313D01*
X103458196Y-62009000D01*
X103541804Y-62009000D01*
X103666823Y-62021313D01*
X103666823Y-62021313D01*
G37*
G36*
X106206823Y-62021313D02*
G01*
X106367242Y-62069976D01*
X106436922Y-62107221D01*
X106515078Y-62148996D01*
X106644659Y-62255341D01*
X106751004Y-62384922D01*
X106751005Y-62384924D01*
X106830024Y-62532758D01*
X106878687Y-62693177D01*
X106895117Y-62860000D01*
X106878687Y-63026823D01*
X106830024Y-63187242D01*
X106819747Y-63206468D01*
X106751004Y-63335078D01*
X106644659Y-63464659D01*
X106515078Y-63571004D01*
X106515076Y-63571005D01*
X106367242Y-63650024D01*
X106206823Y-63698687D01*
X106081804Y-63711000D01*
X105998196Y-63711000D01*
X105873177Y-63698687D01*
X105712758Y-63650024D01*
X105564924Y-63571005D01*
X105564922Y-63571004D01*
X105435341Y-63464659D01*
X105328996Y-63335078D01*
X105260253Y-63206468D01*
X105249976Y-63187242D01*
X105201313Y-63026823D01*
X105184883Y-62860000D01*
X105201313Y-62693177D01*
X105249976Y-62532758D01*
X105328995Y-62384924D01*
X105328996Y-62384922D01*
X105435341Y-62255341D01*
X105564922Y-62148996D01*
X105643078Y-62107221D01*
X105712758Y-62069976D01*
X105873177Y-62021313D01*
X105998196Y-62009000D01*
X106081804Y-62009000D01*
X106206823Y-62021313D01*
X106206823Y-62021313D01*
G37*
G36*
X108746823Y-62021313D02*
G01*
X108907242Y-62069976D01*
X108976922Y-62107221D01*
X109055078Y-62148996D01*
X109184659Y-62255341D01*
X109291004Y-62384922D01*
X109291005Y-62384924D01*
X109370024Y-62532758D01*
X109418687Y-62693177D01*
X109435117Y-62860000D01*
X109418687Y-63026823D01*
X109370024Y-63187242D01*
X109359747Y-63206468D01*
X109291004Y-63335078D01*
X109184659Y-63464659D01*
X109055078Y-63571004D01*
X109055076Y-63571005D01*
X108907242Y-63650024D01*
X108746823Y-63698687D01*
X108621804Y-63711000D01*
X108538196Y-63711000D01*
X108413177Y-63698687D01*
X108252758Y-63650024D01*
X108104924Y-63571005D01*
X108104922Y-63571004D01*
X107975341Y-63464659D01*
X107868996Y-63335078D01*
X107800253Y-63206468D01*
X107789976Y-63187242D01*
X107741313Y-63026823D01*
X107724883Y-62860000D01*
X107741313Y-62693177D01*
X107789976Y-62532758D01*
X107868995Y-62384924D01*
X107868996Y-62384922D01*
X107975341Y-62255341D01*
X108104922Y-62148996D01*
X108183078Y-62107221D01*
X108252758Y-62069976D01*
X108413177Y-62021313D01*
X108538196Y-62009000D01*
X108621804Y-62009000D01*
X108746823Y-62021313D01*
X108746823Y-62021313D01*
G37*
G36*
X94191000Y-63711000D02*
G01*
X92489000Y-63711000D01*
X92489000Y-62009000D01*
X94191000Y-62009000D01*
X94191000Y-63711000D01*
X94191000Y-63711000D01*
G37*
G36*
X79536823Y-62021313D02*
G01*
X79697242Y-62069976D01*
X79766922Y-62107221D01*
X79845078Y-62148996D01*
X79974659Y-62255341D01*
X80081004Y-62384922D01*
X80081005Y-62384924D01*
X80160024Y-62532758D01*
X80208687Y-62693177D01*
X80225117Y-62860000D01*
X80208687Y-63026823D01*
X80160024Y-63187242D01*
X80149747Y-63206468D01*
X80081004Y-63335078D01*
X79974659Y-63464659D01*
X79845078Y-63571004D01*
X79845076Y-63571005D01*
X79697242Y-63650024D01*
X79536823Y-63698687D01*
X79411804Y-63711000D01*
X79328196Y-63711000D01*
X79203177Y-63698687D01*
X79042758Y-63650024D01*
X78894924Y-63571005D01*
X78894922Y-63571004D01*
X78765341Y-63464659D01*
X78658996Y-63335078D01*
X78590253Y-63206468D01*
X78579976Y-63187242D01*
X78531313Y-63026823D01*
X78514883Y-62860000D01*
X78531313Y-62693177D01*
X78579976Y-62532758D01*
X78658995Y-62384924D01*
X78658996Y-62384922D01*
X78765341Y-62255341D01*
X78894922Y-62148996D01*
X78973078Y-62107221D01*
X79042758Y-62069976D01*
X79203177Y-62021313D01*
X79328196Y-62009000D01*
X79411804Y-62009000D01*
X79536823Y-62021313D01*
X79536823Y-62021313D01*
G37*
G36*
X44110443Y-59425519D02*
G01*
X44176627Y-59432037D01*
X44346466Y-59483557D01*
X44502991Y-59567222D01*
X44538729Y-59596552D01*
X44640186Y-59679814D01*
X44723448Y-59781271D01*
X44752778Y-59817009D01*
X44836443Y-59973534D01*
X44887963Y-60143373D01*
X44905359Y-60320000D01*
X44887963Y-60496627D01*
X44836443Y-60666466D01*
X44752778Y-60822991D01*
X44723448Y-60858729D01*
X44640186Y-60960186D01*
X44538729Y-61043448D01*
X44502991Y-61072778D01*
X44346466Y-61156443D01*
X44176627Y-61207963D01*
X44110443Y-61214481D01*
X44044260Y-61221000D01*
X43955740Y-61221000D01*
X43889557Y-61214481D01*
X43823373Y-61207963D01*
X43653534Y-61156443D01*
X43497009Y-61072778D01*
X43461271Y-61043448D01*
X43359814Y-60960186D01*
X43276552Y-60858729D01*
X43247222Y-60822991D01*
X43163557Y-60666466D01*
X43112037Y-60496627D01*
X43094641Y-60320000D01*
X43112037Y-60143373D01*
X43163557Y-59973534D01*
X43247222Y-59817009D01*
X43276552Y-59781271D01*
X43359814Y-59679814D01*
X43461271Y-59596552D01*
X43497009Y-59567222D01*
X43653534Y-59483557D01*
X43823373Y-59432037D01*
X43889557Y-59425519D01*
X43955740Y-59419000D01*
X44044260Y-59419000D01*
X44110443Y-59425519D01*
X44110443Y-59425519D01*
G37*
G36*
X44110442Y-56885518D02*
G01*
X44176627Y-56892037D01*
X44346466Y-56943557D01*
X44502991Y-57027222D01*
X44538729Y-57056552D01*
X44640186Y-57139814D01*
X44723448Y-57241271D01*
X44752778Y-57277009D01*
X44836443Y-57433534D01*
X44887963Y-57603373D01*
X44905359Y-57780000D01*
X44887963Y-57956627D01*
X44836443Y-58126466D01*
X44752778Y-58282991D01*
X44723448Y-58318729D01*
X44640186Y-58420186D01*
X44538729Y-58503448D01*
X44502991Y-58532778D01*
X44346466Y-58616443D01*
X44176627Y-58667963D01*
X44110442Y-58674482D01*
X44044260Y-58681000D01*
X43955740Y-58681000D01*
X43889558Y-58674482D01*
X43823373Y-58667963D01*
X43653534Y-58616443D01*
X43497009Y-58532778D01*
X43461271Y-58503448D01*
X43359814Y-58420186D01*
X43276552Y-58318729D01*
X43247222Y-58282991D01*
X43163557Y-58126466D01*
X43112037Y-57956627D01*
X43094641Y-57780000D01*
X43112037Y-57603373D01*
X43163557Y-57433534D01*
X43247222Y-57277009D01*
X43276552Y-57241271D01*
X43359814Y-57139814D01*
X43461271Y-57056552D01*
X43497009Y-57027222D01*
X43653534Y-56943557D01*
X43823373Y-56892037D01*
X43889558Y-56885518D01*
X43955740Y-56879000D01*
X44044260Y-56879000D01*
X44110442Y-56885518D01*
X44110442Y-56885518D01*
G37*
G36*
X44901000Y-56141000D02*
G01*
X43099000Y-56141000D01*
X43099000Y-54339000D01*
X44901000Y-54339000D01*
X44901000Y-56141000D01*
X44901000Y-56141000D01*
G37*
G36*
X108746823Y-54401313D02*
G01*
X108907242Y-54449976D01*
X109039906Y-54520886D01*
X109055078Y-54528996D01*
X109184659Y-54635341D01*
X109291004Y-54764922D01*
X109291005Y-54764924D01*
X109370024Y-54912758D01*
X109418687Y-55073177D01*
X109435117Y-55240000D01*
X109418687Y-55406823D01*
X109370024Y-55567242D01*
X109299114Y-55699906D01*
X109291004Y-55715078D01*
X109184659Y-55844659D01*
X109055078Y-55951004D01*
X109055076Y-55951005D01*
X108907242Y-56030024D01*
X108746823Y-56078687D01*
X108621804Y-56091000D01*
X108538196Y-56091000D01*
X108413177Y-56078687D01*
X108252758Y-56030024D01*
X108104924Y-55951005D01*
X108104922Y-55951004D01*
X107975341Y-55844659D01*
X107868996Y-55715078D01*
X107860886Y-55699906D01*
X107789976Y-55567242D01*
X107741313Y-55406823D01*
X107724883Y-55240000D01*
X107741313Y-55073177D01*
X107789976Y-54912758D01*
X107868995Y-54764924D01*
X107868996Y-54764922D01*
X107975341Y-54635341D01*
X108104922Y-54528996D01*
X108120094Y-54520886D01*
X108252758Y-54449976D01*
X108413177Y-54401313D01*
X108538196Y-54389000D01*
X108621804Y-54389000D01*
X108746823Y-54401313D01*
X108746823Y-54401313D01*
G37*
G36*
X115096823Y-54401313D02*
G01*
X115257242Y-54449976D01*
X115389906Y-54520886D01*
X115405078Y-54528996D01*
X115534659Y-54635341D01*
X115641004Y-54764922D01*
X115641005Y-54764924D01*
X115720024Y-54912758D01*
X115768687Y-55073177D01*
X115785117Y-55240000D01*
X115768687Y-55406823D01*
X115720024Y-55567242D01*
X115649114Y-55699906D01*
X115641004Y-55715078D01*
X115534659Y-55844659D01*
X115405078Y-55951004D01*
X115405076Y-55951005D01*
X115257242Y-56030024D01*
X115096823Y-56078687D01*
X114971804Y-56091000D01*
X114888196Y-56091000D01*
X114763177Y-56078687D01*
X114602758Y-56030024D01*
X114454924Y-55951005D01*
X114454922Y-55951004D01*
X114325341Y-55844659D01*
X114218996Y-55715078D01*
X114210886Y-55699906D01*
X114139976Y-55567242D01*
X114091313Y-55406823D01*
X114074883Y-55240000D01*
X114091313Y-55073177D01*
X114139976Y-54912758D01*
X114218995Y-54764924D01*
X114218996Y-54764922D01*
X114325341Y-54635341D01*
X114454922Y-54528996D01*
X114470094Y-54520886D01*
X114602758Y-54449976D01*
X114763177Y-54401313D01*
X114888196Y-54389000D01*
X114971804Y-54389000D01*
X115096823Y-54401313D01*
X115096823Y-54401313D01*
G37*
G36*
X54136823Y-54401313D02*
G01*
X54297242Y-54449976D01*
X54429906Y-54520886D01*
X54445078Y-54528996D01*
X54574659Y-54635341D01*
X54681004Y-54764922D01*
X54681005Y-54764924D01*
X54760024Y-54912758D01*
X54808687Y-55073177D01*
X54825117Y-55240000D01*
X54808687Y-55406823D01*
X54760024Y-55567242D01*
X54689114Y-55699906D01*
X54681004Y-55715078D01*
X54574659Y-55844659D01*
X54445078Y-55951004D01*
X54445076Y-55951005D01*
X54297242Y-56030024D01*
X54136823Y-56078687D01*
X54011804Y-56091000D01*
X53928196Y-56091000D01*
X53803177Y-56078687D01*
X53642758Y-56030024D01*
X53494924Y-55951005D01*
X53494922Y-55951004D01*
X53365341Y-55844659D01*
X53258996Y-55715078D01*
X53250886Y-55699906D01*
X53179976Y-55567242D01*
X53131313Y-55406823D01*
X53114883Y-55240000D01*
X53131313Y-55073177D01*
X53179976Y-54912758D01*
X53258995Y-54764924D01*
X53258996Y-54764922D01*
X53365341Y-54635341D01*
X53494922Y-54528996D01*
X53510094Y-54520886D01*
X53642758Y-54449976D01*
X53803177Y-54401313D01*
X53928196Y-54389000D01*
X54011804Y-54389000D01*
X54136823Y-54401313D01*
X54136823Y-54401313D01*
G37*
G36*
X56676823Y-54401313D02*
G01*
X56837242Y-54449976D01*
X56969906Y-54520886D01*
X56985078Y-54528996D01*
X57114659Y-54635341D01*
X57221004Y-54764922D01*
X57221005Y-54764924D01*
X57300024Y-54912758D01*
X57348687Y-55073177D01*
X57365117Y-55240000D01*
X57348687Y-55406823D01*
X57300024Y-55567242D01*
X57229114Y-55699906D01*
X57221004Y-55715078D01*
X57114659Y-55844659D01*
X56985078Y-55951004D01*
X56985076Y-55951005D01*
X56837242Y-56030024D01*
X56676823Y-56078687D01*
X56551804Y-56091000D01*
X56468196Y-56091000D01*
X56343177Y-56078687D01*
X56182758Y-56030024D01*
X56034924Y-55951005D01*
X56034922Y-55951004D01*
X55905341Y-55844659D01*
X55798996Y-55715078D01*
X55790886Y-55699906D01*
X55719976Y-55567242D01*
X55671313Y-55406823D01*
X55654883Y-55240000D01*
X55671313Y-55073177D01*
X55719976Y-54912758D01*
X55798995Y-54764924D01*
X55798996Y-54764922D01*
X55905341Y-54635341D01*
X56034922Y-54528996D01*
X56050094Y-54520886D01*
X56182758Y-54449976D01*
X56343177Y-54401313D01*
X56468196Y-54389000D01*
X56551804Y-54389000D01*
X56676823Y-54401313D01*
X56676823Y-54401313D01*
G37*
G36*
X59216823Y-54401313D02*
G01*
X59377242Y-54449976D01*
X59509906Y-54520886D01*
X59525078Y-54528996D01*
X59654659Y-54635341D01*
X59761004Y-54764922D01*
X59761005Y-54764924D01*
X59840024Y-54912758D01*
X59888687Y-55073177D01*
X59905117Y-55240000D01*
X59888687Y-55406823D01*
X59840024Y-55567242D01*
X59769114Y-55699906D01*
X59761004Y-55715078D01*
X59654659Y-55844659D01*
X59525078Y-55951004D01*
X59525076Y-55951005D01*
X59377242Y-56030024D01*
X59216823Y-56078687D01*
X59091804Y-56091000D01*
X59008196Y-56091000D01*
X58883177Y-56078687D01*
X58722758Y-56030024D01*
X58574924Y-55951005D01*
X58574922Y-55951004D01*
X58445341Y-55844659D01*
X58338996Y-55715078D01*
X58330886Y-55699906D01*
X58259976Y-55567242D01*
X58211313Y-55406823D01*
X58194883Y-55240000D01*
X58211313Y-55073177D01*
X58259976Y-54912758D01*
X58338995Y-54764924D01*
X58338996Y-54764922D01*
X58445341Y-54635341D01*
X58574922Y-54528996D01*
X58590094Y-54520886D01*
X58722758Y-54449976D01*
X58883177Y-54401313D01*
X59008196Y-54389000D01*
X59091804Y-54389000D01*
X59216823Y-54401313D01*
X59216823Y-54401313D01*
G37*
G36*
X87156823Y-54401313D02*
G01*
X87317242Y-54449976D01*
X87449906Y-54520886D01*
X87465078Y-54528996D01*
X87594659Y-54635341D01*
X87701004Y-54764922D01*
X87701005Y-54764924D01*
X87780024Y-54912758D01*
X87828687Y-55073177D01*
X87845117Y-55240000D01*
X87828687Y-55406823D01*
X87780024Y-55567242D01*
X87709114Y-55699906D01*
X87701004Y-55715078D01*
X87594659Y-55844659D01*
X87465078Y-55951004D01*
X87465076Y-55951005D01*
X87317242Y-56030024D01*
X87156823Y-56078687D01*
X87031804Y-56091000D01*
X86948196Y-56091000D01*
X86823177Y-56078687D01*
X86662758Y-56030024D01*
X86514924Y-55951005D01*
X86514922Y-55951004D01*
X86385341Y-55844659D01*
X86278996Y-55715078D01*
X86270886Y-55699906D01*
X86199976Y-55567242D01*
X86151313Y-55406823D01*
X86134883Y-55240000D01*
X86151313Y-55073177D01*
X86199976Y-54912758D01*
X86278995Y-54764924D01*
X86278996Y-54764922D01*
X86385341Y-54635341D01*
X86514922Y-54528996D01*
X86530094Y-54520886D01*
X86662758Y-54449976D01*
X86823177Y-54401313D01*
X86948196Y-54389000D01*
X87031804Y-54389000D01*
X87156823Y-54401313D01*
X87156823Y-54401313D01*
G37*
G36*
X84616823Y-54401313D02*
G01*
X84777242Y-54449976D01*
X84909906Y-54520886D01*
X84925078Y-54528996D01*
X85054659Y-54635341D01*
X85161004Y-54764922D01*
X85161005Y-54764924D01*
X85240024Y-54912758D01*
X85288687Y-55073177D01*
X85305117Y-55240000D01*
X85288687Y-55406823D01*
X85240024Y-55567242D01*
X85169114Y-55699906D01*
X85161004Y-55715078D01*
X85054659Y-55844659D01*
X84925078Y-55951004D01*
X84925076Y-55951005D01*
X84777242Y-56030024D01*
X84616823Y-56078687D01*
X84491804Y-56091000D01*
X84408196Y-56091000D01*
X84283177Y-56078687D01*
X84122758Y-56030024D01*
X83974924Y-55951005D01*
X83974922Y-55951004D01*
X83845341Y-55844659D01*
X83738996Y-55715078D01*
X83730886Y-55699906D01*
X83659976Y-55567242D01*
X83611313Y-55406823D01*
X83594883Y-55240000D01*
X83611313Y-55073177D01*
X83659976Y-54912758D01*
X83738995Y-54764924D01*
X83738996Y-54764922D01*
X83845341Y-54635341D01*
X83974922Y-54528996D01*
X83990094Y-54520886D01*
X84122758Y-54449976D01*
X84283177Y-54401313D01*
X84408196Y-54389000D01*
X84491804Y-54389000D01*
X84616823Y-54401313D01*
X84616823Y-54401313D01*
G37*
G36*
X82076823Y-54401313D02*
G01*
X82237242Y-54449976D01*
X82369906Y-54520886D01*
X82385078Y-54528996D01*
X82514659Y-54635341D01*
X82621004Y-54764922D01*
X82621005Y-54764924D01*
X82700024Y-54912758D01*
X82748687Y-55073177D01*
X82765117Y-55240000D01*
X82748687Y-55406823D01*
X82700024Y-55567242D01*
X82629114Y-55699906D01*
X82621004Y-55715078D01*
X82514659Y-55844659D01*
X82385078Y-55951004D01*
X82385076Y-55951005D01*
X82237242Y-56030024D01*
X82076823Y-56078687D01*
X81951804Y-56091000D01*
X81868196Y-56091000D01*
X81743177Y-56078687D01*
X81582758Y-56030024D01*
X81434924Y-55951005D01*
X81434922Y-55951004D01*
X81305341Y-55844659D01*
X81198996Y-55715078D01*
X81190886Y-55699906D01*
X81119976Y-55567242D01*
X81071313Y-55406823D01*
X81054883Y-55240000D01*
X81071313Y-55073177D01*
X81119976Y-54912758D01*
X81198995Y-54764924D01*
X81198996Y-54764922D01*
X81305341Y-54635341D01*
X81434922Y-54528996D01*
X81450094Y-54520886D01*
X81582758Y-54449976D01*
X81743177Y-54401313D01*
X81868196Y-54389000D01*
X81951804Y-54389000D01*
X82076823Y-54401313D01*
X82076823Y-54401313D01*
G37*
G36*
X61756823Y-54401313D02*
G01*
X61917242Y-54449976D01*
X62049906Y-54520886D01*
X62065078Y-54528996D01*
X62194659Y-54635341D01*
X62301004Y-54764922D01*
X62301005Y-54764924D01*
X62380024Y-54912758D01*
X62428687Y-55073177D01*
X62445117Y-55240000D01*
X62428687Y-55406823D01*
X62380024Y-55567242D01*
X62309114Y-55699906D01*
X62301004Y-55715078D01*
X62194659Y-55844659D01*
X62065078Y-55951004D01*
X62065076Y-55951005D01*
X61917242Y-56030024D01*
X61756823Y-56078687D01*
X61631804Y-56091000D01*
X61548196Y-56091000D01*
X61423177Y-56078687D01*
X61262758Y-56030024D01*
X61114924Y-55951005D01*
X61114922Y-55951004D01*
X60985341Y-55844659D01*
X60878996Y-55715078D01*
X60870886Y-55699906D01*
X60799976Y-55567242D01*
X60751313Y-55406823D01*
X60734883Y-55240000D01*
X60751313Y-55073177D01*
X60799976Y-54912758D01*
X60878995Y-54764924D01*
X60878996Y-54764922D01*
X60985341Y-54635341D01*
X61114922Y-54528996D01*
X61130094Y-54520886D01*
X61262758Y-54449976D01*
X61423177Y-54401313D01*
X61548196Y-54389000D01*
X61631804Y-54389000D01*
X61756823Y-54401313D01*
X61756823Y-54401313D01*
G37*
G36*
X79536823Y-54401313D02*
G01*
X79697242Y-54449976D01*
X79829906Y-54520886D01*
X79845078Y-54528996D01*
X79974659Y-54635341D01*
X80081004Y-54764922D01*
X80081005Y-54764924D01*
X80160024Y-54912758D01*
X80208687Y-55073177D01*
X80225117Y-55240000D01*
X80208687Y-55406823D01*
X80160024Y-55567242D01*
X80089114Y-55699906D01*
X80081004Y-55715078D01*
X79974659Y-55844659D01*
X79845078Y-55951004D01*
X79845076Y-55951005D01*
X79697242Y-56030024D01*
X79536823Y-56078687D01*
X79411804Y-56091000D01*
X79328196Y-56091000D01*
X79203177Y-56078687D01*
X79042758Y-56030024D01*
X78894924Y-55951005D01*
X78894922Y-55951004D01*
X78765341Y-55844659D01*
X78658996Y-55715078D01*
X78650886Y-55699906D01*
X78579976Y-55567242D01*
X78531313Y-55406823D01*
X78514883Y-55240000D01*
X78531313Y-55073177D01*
X78579976Y-54912758D01*
X78658995Y-54764924D01*
X78658996Y-54764922D01*
X78765341Y-54635341D01*
X78894922Y-54528996D01*
X78910094Y-54520886D01*
X79042758Y-54449976D01*
X79203177Y-54401313D01*
X79328196Y-54389000D01*
X79411804Y-54389000D01*
X79536823Y-54401313D01*
X79536823Y-54401313D01*
G37*
G36*
X76996823Y-54401313D02*
G01*
X77157242Y-54449976D01*
X77289906Y-54520886D01*
X77305078Y-54528996D01*
X77434659Y-54635341D01*
X77541004Y-54764922D01*
X77541005Y-54764924D01*
X77620024Y-54912758D01*
X77668687Y-55073177D01*
X77685117Y-55240000D01*
X77668687Y-55406823D01*
X77620024Y-55567242D01*
X77549114Y-55699906D01*
X77541004Y-55715078D01*
X77434659Y-55844659D01*
X77305078Y-55951004D01*
X77305076Y-55951005D01*
X77157242Y-56030024D01*
X76996823Y-56078687D01*
X76871804Y-56091000D01*
X76788196Y-56091000D01*
X76663177Y-56078687D01*
X76502758Y-56030024D01*
X76354924Y-55951005D01*
X76354922Y-55951004D01*
X76225341Y-55844659D01*
X76118996Y-55715078D01*
X76110886Y-55699906D01*
X76039976Y-55567242D01*
X75991313Y-55406823D01*
X75974883Y-55240000D01*
X75991313Y-55073177D01*
X76039976Y-54912758D01*
X76118995Y-54764924D01*
X76118996Y-54764922D01*
X76225341Y-54635341D01*
X76354922Y-54528996D01*
X76370094Y-54520886D01*
X76502758Y-54449976D01*
X76663177Y-54401313D01*
X76788196Y-54389000D01*
X76871804Y-54389000D01*
X76996823Y-54401313D01*
X76996823Y-54401313D01*
G37*
G36*
X71916823Y-54401313D02*
G01*
X72077242Y-54449976D01*
X72209906Y-54520886D01*
X72225078Y-54528996D01*
X72354659Y-54635341D01*
X72461004Y-54764922D01*
X72461005Y-54764924D01*
X72540024Y-54912758D01*
X72588687Y-55073177D01*
X72605117Y-55240000D01*
X72588687Y-55406823D01*
X72540024Y-55567242D01*
X72469114Y-55699906D01*
X72461004Y-55715078D01*
X72354659Y-55844659D01*
X72225078Y-55951004D01*
X72225076Y-55951005D01*
X72077242Y-56030024D01*
X71916823Y-56078687D01*
X71791804Y-56091000D01*
X71708196Y-56091000D01*
X71583177Y-56078687D01*
X71422758Y-56030024D01*
X71274924Y-55951005D01*
X71274922Y-55951004D01*
X71145341Y-55844659D01*
X71038996Y-55715078D01*
X71030886Y-55699906D01*
X70959976Y-55567242D01*
X70911313Y-55406823D01*
X70894883Y-55240000D01*
X70911313Y-55073177D01*
X70959976Y-54912758D01*
X71038995Y-54764924D01*
X71038996Y-54764922D01*
X71145341Y-54635341D01*
X71274922Y-54528996D01*
X71290094Y-54520886D01*
X71422758Y-54449976D01*
X71583177Y-54401313D01*
X71708196Y-54389000D01*
X71791804Y-54389000D01*
X71916823Y-54401313D01*
X71916823Y-54401313D01*
G37*
G36*
X74456823Y-54401313D02*
G01*
X74617242Y-54449976D01*
X74749906Y-54520886D01*
X74765078Y-54528996D01*
X74894659Y-54635341D01*
X75001004Y-54764922D01*
X75001005Y-54764924D01*
X75080024Y-54912758D01*
X75128687Y-55073177D01*
X75145117Y-55240000D01*
X75128687Y-55406823D01*
X75080024Y-55567242D01*
X75009114Y-55699906D01*
X75001004Y-55715078D01*
X74894659Y-55844659D01*
X74765078Y-55951004D01*
X74765076Y-55951005D01*
X74617242Y-56030024D01*
X74456823Y-56078687D01*
X74331804Y-56091000D01*
X74248196Y-56091000D01*
X74123177Y-56078687D01*
X73962758Y-56030024D01*
X73814924Y-55951005D01*
X73814922Y-55951004D01*
X73685341Y-55844659D01*
X73578996Y-55715078D01*
X73570886Y-55699906D01*
X73499976Y-55567242D01*
X73451313Y-55406823D01*
X73434883Y-55240000D01*
X73451313Y-55073177D01*
X73499976Y-54912758D01*
X73578995Y-54764924D01*
X73578996Y-54764922D01*
X73685341Y-54635341D01*
X73814922Y-54528996D01*
X73830094Y-54520886D01*
X73962758Y-54449976D01*
X74123177Y-54401313D01*
X74248196Y-54389000D01*
X74331804Y-54389000D01*
X74456823Y-54401313D01*
X74456823Y-54401313D01*
G37*
G36*
X93506823Y-54401313D02*
G01*
X93667242Y-54449976D01*
X93799906Y-54520886D01*
X93815078Y-54528996D01*
X93944659Y-54635341D01*
X94051004Y-54764922D01*
X94051005Y-54764924D01*
X94130024Y-54912758D01*
X94178687Y-55073177D01*
X94195117Y-55240000D01*
X94178687Y-55406823D01*
X94130024Y-55567242D01*
X94059114Y-55699906D01*
X94051004Y-55715078D01*
X93944659Y-55844659D01*
X93815078Y-55951004D01*
X93815076Y-55951005D01*
X93667242Y-56030024D01*
X93506823Y-56078687D01*
X93381804Y-56091000D01*
X93298196Y-56091000D01*
X93173177Y-56078687D01*
X93012758Y-56030024D01*
X92864924Y-55951005D01*
X92864922Y-55951004D01*
X92735341Y-55844659D01*
X92628996Y-55715078D01*
X92620886Y-55699906D01*
X92549976Y-55567242D01*
X92501313Y-55406823D01*
X92484883Y-55240000D01*
X92501313Y-55073177D01*
X92549976Y-54912758D01*
X92628995Y-54764924D01*
X92628996Y-54764922D01*
X92735341Y-54635341D01*
X92864922Y-54528996D01*
X92880094Y-54520886D01*
X93012758Y-54449976D01*
X93173177Y-54401313D01*
X93298196Y-54389000D01*
X93381804Y-54389000D01*
X93506823Y-54401313D01*
X93506823Y-54401313D01*
G37*
G36*
X66836823Y-54401313D02*
G01*
X66997242Y-54449976D01*
X67129906Y-54520886D01*
X67145078Y-54528996D01*
X67274659Y-54635341D01*
X67381004Y-54764922D01*
X67381005Y-54764924D01*
X67460024Y-54912758D01*
X67508687Y-55073177D01*
X67525117Y-55240000D01*
X67508687Y-55406823D01*
X67460024Y-55567242D01*
X67389114Y-55699906D01*
X67381004Y-55715078D01*
X67274659Y-55844659D01*
X67145078Y-55951004D01*
X67145076Y-55951005D01*
X66997242Y-56030024D01*
X66836823Y-56078687D01*
X66711804Y-56091000D01*
X66628196Y-56091000D01*
X66503177Y-56078687D01*
X66342758Y-56030024D01*
X66194924Y-55951005D01*
X66194922Y-55951004D01*
X66065341Y-55844659D01*
X65958996Y-55715078D01*
X65950886Y-55699906D01*
X65879976Y-55567242D01*
X65831313Y-55406823D01*
X65814883Y-55240000D01*
X65831313Y-55073177D01*
X65879976Y-54912758D01*
X65958995Y-54764924D01*
X65958996Y-54764922D01*
X66065341Y-54635341D01*
X66194922Y-54528996D01*
X66210094Y-54520886D01*
X66342758Y-54449976D01*
X66503177Y-54401313D01*
X66628196Y-54389000D01*
X66711804Y-54389000D01*
X66836823Y-54401313D01*
X66836823Y-54401313D01*
G37*
G36*
X69376823Y-54401313D02*
G01*
X69537242Y-54449976D01*
X69669906Y-54520886D01*
X69685078Y-54528996D01*
X69814659Y-54635341D01*
X69921004Y-54764922D01*
X69921005Y-54764924D01*
X70000024Y-54912758D01*
X70048687Y-55073177D01*
X70065117Y-55240000D01*
X70048687Y-55406823D01*
X70000024Y-55567242D01*
X69929114Y-55699906D01*
X69921004Y-55715078D01*
X69814659Y-55844659D01*
X69685078Y-55951004D01*
X69685076Y-55951005D01*
X69537242Y-56030024D01*
X69376823Y-56078687D01*
X69251804Y-56091000D01*
X69168196Y-56091000D01*
X69043177Y-56078687D01*
X68882758Y-56030024D01*
X68734924Y-55951005D01*
X68734922Y-55951004D01*
X68605341Y-55844659D01*
X68498996Y-55715078D01*
X68490886Y-55699906D01*
X68419976Y-55567242D01*
X68371313Y-55406823D01*
X68354883Y-55240000D01*
X68371313Y-55073177D01*
X68419976Y-54912758D01*
X68498995Y-54764924D01*
X68498996Y-54764922D01*
X68605341Y-54635341D01*
X68734922Y-54528996D01*
X68750094Y-54520886D01*
X68882758Y-54449976D01*
X69043177Y-54401313D01*
X69168196Y-54389000D01*
X69251804Y-54389000D01*
X69376823Y-54401313D01*
X69376823Y-54401313D01*
G37*
G36*
X101126823Y-54401313D02*
G01*
X101287242Y-54449976D01*
X101419906Y-54520886D01*
X101435078Y-54528996D01*
X101564659Y-54635341D01*
X101671004Y-54764922D01*
X101671005Y-54764924D01*
X101750024Y-54912758D01*
X101798687Y-55073177D01*
X101815117Y-55240000D01*
X101798687Y-55406823D01*
X101750024Y-55567242D01*
X101679114Y-55699906D01*
X101671004Y-55715078D01*
X101564659Y-55844659D01*
X101435078Y-55951004D01*
X101435076Y-55951005D01*
X101287242Y-56030024D01*
X101126823Y-56078687D01*
X101001804Y-56091000D01*
X100918196Y-56091000D01*
X100793177Y-56078687D01*
X100632758Y-56030024D01*
X100484924Y-55951005D01*
X100484922Y-55951004D01*
X100355341Y-55844659D01*
X100248996Y-55715078D01*
X100240886Y-55699906D01*
X100169976Y-55567242D01*
X100121313Y-55406823D01*
X100104883Y-55240000D01*
X100121313Y-55073177D01*
X100169976Y-54912758D01*
X100248995Y-54764924D01*
X100248996Y-54764922D01*
X100355341Y-54635341D01*
X100484922Y-54528996D01*
X100500094Y-54520886D01*
X100632758Y-54449976D01*
X100793177Y-54401313D01*
X100918196Y-54389000D01*
X101001804Y-54389000D01*
X101126823Y-54401313D01*
X101126823Y-54401313D01*
G37*
G36*
X64296823Y-54401313D02*
G01*
X64457242Y-54449976D01*
X64589906Y-54520886D01*
X64605078Y-54528996D01*
X64734659Y-54635341D01*
X64841004Y-54764922D01*
X64841005Y-54764924D01*
X64920024Y-54912758D01*
X64968687Y-55073177D01*
X64985117Y-55240000D01*
X64968687Y-55406823D01*
X64920024Y-55567242D01*
X64849114Y-55699906D01*
X64841004Y-55715078D01*
X64734659Y-55844659D01*
X64605078Y-55951004D01*
X64605076Y-55951005D01*
X64457242Y-56030024D01*
X64296823Y-56078687D01*
X64171804Y-56091000D01*
X64088196Y-56091000D01*
X63963177Y-56078687D01*
X63802758Y-56030024D01*
X63654924Y-55951005D01*
X63654922Y-55951004D01*
X63525341Y-55844659D01*
X63418996Y-55715078D01*
X63410886Y-55699906D01*
X63339976Y-55567242D01*
X63291313Y-55406823D01*
X63274883Y-55240000D01*
X63291313Y-55073177D01*
X63339976Y-54912758D01*
X63418995Y-54764924D01*
X63418996Y-54764922D01*
X63525341Y-54635341D01*
X63654922Y-54528996D01*
X63670094Y-54520886D01*
X63802758Y-54449976D01*
X63963177Y-54401313D01*
X64088196Y-54389000D01*
X64171804Y-54389000D01*
X64296823Y-54401313D01*
X64296823Y-54401313D01*
G37*
G36*
X103666823Y-54401313D02*
G01*
X103827242Y-54449976D01*
X103959906Y-54520886D01*
X103975078Y-54528996D01*
X104104659Y-54635341D01*
X104211004Y-54764922D01*
X104211005Y-54764924D01*
X104290024Y-54912758D01*
X104338687Y-55073177D01*
X104355117Y-55240000D01*
X104338687Y-55406823D01*
X104290024Y-55567242D01*
X104219114Y-55699906D01*
X104211004Y-55715078D01*
X104104659Y-55844659D01*
X103975078Y-55951004D01*
X103975076Y-55951005D01*
X103827242Y-56030024D01*
X103666823Y-56078687D01*
X103541804Y-56091000D01*
X103458196Y-56091000D01*
X103333177Y-56078687D01*
X103172758Y-56030024D01*
X103024924Y-55951005D01*
X103024922Y-55951004D01*
X102895341Y-55844659D01*
X102788996Y-55715078D01*
X102780886Y-55699906D01*
X102709976Y-55567242D01*
X102661313Y-55406823D01*
X102644883Y-55240000D01*
X102661313Y-55073177D01*
X102709976Y-54912758D01*
X102788995Y-54764924D01*
X102788996Y-54764922D01*
X102895341Y-54635341D01*
X103024922Y-54528996D01*
X103040094Y-54520886D01*
X103172758Y-54449976D01*
X103333177Y-54401313D01*
X103458196Y-54389000D01*
X103541804Y-54389000D01*
X103666823Y-54401313D01*
X103666823Y-54401313D01*
G37*
G36*
X98586823Y-54401313D02*
G01*
X98747242Y-54449976D01*
X98879906Y-54520886D01*
X98895078Y-54528996D01*
X99024659Y-54635341D01*
X99131004Y-54764922D01*
X99131005Y-54764924D01*
X99210024Y-54912758D01*
X99258687Y-55073177D01*
X99275117Y-55240000D01*
X99258687Y-55406823D01*
X99210024Y-55567242D01*
X99139114Y-55699906D01*
X99131004Y-55715078D01*
X99024659Y-55844659D01*
X98895078Y-55951004D01*
X98895076Y-55951005D01*
X98747242Y-56030024D01*
X98586823Y-56078687D01*
X98461804Y-56091000D01*
X98378196Y-56091000D01*
X98253177Y-56078687D01*
X98092758Y-56030024D01*
X97944924Y-55951005D01*
X97944922Y-55951004D01*
X97815341Y-55844659D01*
X97708996Y-55715078D01*
X97700886Y-55699906D01*
X97629976Y-55567242D01*
X97581313Y-55406823D01*
X97564883Y-55240000D01*
X97581313Y-55073177D01*
X97629976Y-54912758D01*
X97708995Y-54764924D01*
X97708996Y-54764922D01*
X97815341Y-54635341D01*
X97944922Y-54528996D01*
X97960094Y-54520886D01*
X98092758Y-54449976D01*
X98253177Y-54401313D01*
X98378196Y-54389000D01*
X98461804Y-54389000D01*
X98586823Y-54401313D01*
X98586823Y-54401313D01*
G37*
G36*
X106206823Y-54401313D02*
G01*
X106367242Y-54449976D01*
X106499906Y-54520886D01*
X106515078Y-54528996D01*
X106644659Y-54635341D01*
X106751004Y-54764922D01*
X106751005Y-54764924D01*
X106830024Y-54912758D01*
X106878687Y-55073177D01*
X106895117Y-55240000D01*
X106878687Y-55406823D01*
X106830024Y-55567242D01*
X106759114Y-55699906D01*
X106751004Y-55715078D01*
X106644659Y-55844659D01*
X106515078Y-55951004D01*
X106515076Y-55951005D01*
X106367242Y-56030024D01*
X106206823Y-56078687D01*
X106081804Y-56091000D01*
X105998196Y-56091000D01*
X105873177Y-56078687D01*
X105712758Y-56030024D01*
X105564924Y-55951005D01*
X105564922Y-55951004D01*
X105435341Y-55844659D01*
X105328996Y-55715078D01*
X105320886Y-55699906D01*
X105249976Y-55567242D01*
X105201313Y-55406823D01*
X105184883Y-55240000D01*
X105201313Y-55073177D01*
X105249976Y-54912758D01*
X105328995Y-54764924D01*
X105328996Y-54764922D01*
X105435341Y-54635341D01*
X105564922Y-54528996D01*
X105580094Y-54520886D01*
X105712758Y-54449976D01*
X105873177Y-54401313D01*
X105998196Y-54389000D01*
X106081804Y-54389000D01*
X106206823Y-54401313D01*
X106206823Y-54401313D01*
G37*
G36*
X96046823Y-54401313D02*
G01*
X96207242Y-54449976D01*
X96339906Y-54520886D01*
X96355078Y-54528996D01*
X96484659Y-54635341D01*
X96591004Y-54764922D01*
X96591005Y-54764924D01*
X96670024Y-54912758D01*
X96718687Y-55073177D01*
X96735117Y-55240000D01*
X96718687Y-55406823D01*
X96670024Y-55567242D01*
X96599114Y-55699906D01*
X96591004Y-55715078D01*
X96484659Y-55844659D01*
X96355078Y-55951004D01*
X96355076Y-55951005D01*
X96207242Y-56030024D01*
X96046823Y-56078687D01*
X95921804Y-56091000D01*
X95838196Y-56091000D01*
X95713177Y-56078687D01*
X95552758Y-56030024D01*
X95404924Y-55951005D01*
X95404922Y-55951004D01*
X95275341Y-55844659D01*
X95168996Y-55715078D01*
X95160886Y-55699906D01*
X95089976Y-55567242D01*
X95041313Y-55406823D01*
X95024883Y-55240000D01*
X95041313Y-55073177D01*
X95089976Y-54912758D01*
X95168995Y-54764924D01*
X95168996Y-54764922D01*
X95275341Y-54635341D01*
X95404922Y-54528996D01*
X95420094Y-54520886D01*
X95552758Y-54449976D01*
X95713177Y-54401313D01*
X95838196Y-54389000D01*
X95921804Y-54389000D01*
X96046823Y-54401313D01*
X96046823Y-54401313D01*
G37*
G36*
X127311000Y-54921000D02*
G01*
X125409000Y-54921000D01*
X125409000Y-53019000D01*
X127311000Y-53019000D01*
X127311000Y-54921000D01*
X127311000Y-54921000D01*
G37*
G36*
X121557395Y-53055546D02*
G01*
X121730466Y-53127234D01*
X121730467Y-53127235D01*
X121886227Y-53231310D01*
X122018690Y-53363773D01*
X122018691Y-53363775D01*
X122122766Y-53519534D01*
X122194454Y-53692605D01*
X122231000Y-53876333D01*
X122231000Y-54063667D01*
X122194454Y-54247395D01*
X122122766Y-54420466D01*
X122103048Y-54449976D01*
X122018690Y-54576227D01*
X121886227Y-54708690D01*
X121807818Y-54761081D01*
X121730466Y-54812766D01*
X121557395Y-54884454D01*
X121373667Y-54921000D01*
X121186333Y-54921000D01*
X121002605Y-54884454D01*
X120829534Y-54812766D01*
X120752182Y-54761081D01*
X120673773Y-54708690D01*
X120541310Y-54576227D01*
X120456952Y-54449976D01*
X120437234Y-54420466D01*
X120365546Y-54247395D01*
X120329000Y-54063667D01*
X120329000Y-53876333D01*
X120365546Y-53692605D01*
X120437234Y-53519534D01*
X120541309Y-53363775D01*
X120541310Y-53363773D01*
X120673773Y-53231310D01*
X120829533Y-53127235D01*
X120829534Y-53127234D01*
X121002605Y-53055546D01*
X121186333Y-53019000D01*
X121373667Y-53019000D01*
X121557395Y-53055546D01*
X121557395Y-53055546D01*
G37*
G36*
X119691000Y-54921000D02*
G01*
X117789000Y-54921000D01*
X117789000Y-53019000D01*
X119691000Y-53019000D01*
X119691000Y-54921000D01*
X119691000Y-54921000D01*
G37*
G36*
X129177395Y-53055546D02*
G01*
X129350466Y-53127234D01*
X129350467Y-53127235D01*
X129506227Y-53231310D01*
X129638690Y-53363773D01*
X129638691Y-53363775D01*
X129742766Y-53519534D01*
X129814454Y-53692605D01*
X129851000Y-53876333D01*
X129851000Y-54063667D01*
X129814454Y-54247395D01*
X129742766Y-54420466D01*
X129723048Y-54449976D01*
X129638690Y-54576227D01*
X129506227Y-54708690D01*
X129427818Y-54761081D01*
X129350466Y-54812766D01*
X129177395Y-54884454D01*
X128993667Y-54921000D01*
X128806333Y-54921000D01*
X128622605Y-54884454D01*
X128449534Y-54812766D01*
X128372182Y-54761081D01*
X128293773Y-54708690D01*
X128161310Y-54576227D01*
X128076952Y-54449976D01*
X128057234Y-54420466D01*
X127985546Y-54247395D01*
X127949000Y-54063667D01*
X127949000Y-53876333D01*
X127985546Y-53692605D01*
X128057234Y-53519534D01*
X128161309Y-53363775D01*
X128161310Y-53363773D01*
X128293773Y-53231310D01*
X128449533Y-53127235D01*
X128449534Y-53127234D01*
X128622605Y-53055546D01*
X128806333Y-53019000D01*
X128993667Y-53019000D01*
X129177395Y-53055546D01*
X129177395Y-53055546D01*
G37*
G36*
X134931000Y-54921000D02*
G01*
X133029000Y-54921000D01*
X133029000Y-53019000D01*
X134931000Y-53019000D01*
X134931000Y-54921000D01*
X134931000Y-54921000D01*
G37*
G36*
X136797395Y-53055546D02*
G01*
X136970466Y-53127234D01*
X136970467Y-53127235D01*
X137126227Y-53231310D01*
X137258690Y-53363773D01*
X137258691Y-53363775D01*
X137362766Y-53519534D01*
X137434454Y-53692605D01*
X137471000Y-53876333D01*
X137471000Y-54063667D01*
X137434454Y-54247395D01*
X137362766Y-54420466D01*
X137343048Y-54449976D01*
X137258690Y-54576227D01*
X137126227Y-54708690D01*
X137047818Y-54761081D01*
X136970466Y-54812766D01*
X136797395Y-54884454D01*
X136613667Y-54921000D01*
X136426333Y-54921000D01*
X136242605Y-54884454D01*
X136069534Y-54812766D01*
X135992182Y-54761081D01*
X135913773Y-54708690D01*
X135781310Y-54576227D01*
X135696952Y-54449976D01*
X135677234Y-54420466D01*
X135605546Y-54247395D01*
X135569000Y-54063667D01*
X135569000Y-53876333D01*
X135605546Y-53692605D01*
X135677234Y-53519534D01*
X135781309Y-53363775D01*
X135781310Y-53363773D01*
X135913773Y-53231310D01*
X136069533Y-53127235D01*
X136069534Y-53127234D01*
X136242605Y-53055546D01*
X136426333Y-53019000D01*
X136613667Y-53019000D01*
X136797395Y-53055546D01*
X136797395Y-53055546D01*
G37*
G36*
X49138228Y-51251703D02*
G01*
X49293100Y-51315853D01*
X49432481Y-51408985D01*
X49551015Y-51527519D01*
X49644147Y-51666900D01*
X49708297Y-51821772D01*
X49741000Y-51986184D01*
X49741000Y-52153816D01*
X49708297Y-52318228D01*
X49644147Y-52473100D01*
X49551015Y-52612481D01*
X49432481Y-52731015D01*
X49293100Y-52824147D01*
X49138228Y-52888297D01*
X48973816Y-52921000D01*
X48806184Y-52921000D01*
X48641772Y-52888297D01*
X48486900Y-52824147D01*
X48347519Y-52731015D01*
X48228985Y-52612481D01*
X48135853Y-52473100D01*
X48071703Y-52318228D01*
X48039000Y-52153816D01*
X48039000Y-51986184D01*
X48071703Y-51821772D01*
X48135853Y-51666900D01*
X48228985Y-51527519D01*
X48347519Y-51408985D01*
X48486900Y-51315853D01*
X48641772Y-51251703D01*
X48806184Y-51219000D01*
X48973816Y-51219000D01*
X49138228Y-51251703D01*
X49138228Y-51251703D01*
G37*
G36*
X89783228Y-49981703D02*
G01*
X89938100Y-50045853D01*
X90077481Y-50138985D01*
X90196015Y-50257519D01*
X90289147Y-50396900D01*
X90353297Y-50551772D01*
X90386000Y-50716184D01*
X90386000Y-50883816D01*
X90353297Y-51048228D01*
X90289147Y-51203100D01*
X90196015Y-51342481D01*
X90077481Y-51461015D01*
X89938100Y-51554147D01*
X89783228Y-51618297D01*
X89618816Y-51651000D01*
X89451184Y-51651000D01*
X89286772Y-51618297D01*
X89131900Y-51554147D01*
X88992519Y-51461015D01*
X88873985Y-51342481D01*
X88780853Y-51203100D01*
X88716703Y-51048228D01*
X88684000Y-50883816D01*
X88684000Y-50716184D01*
X88716703Y-50551772D01*
X88780853Y-50396900D01*
X88873985Y-50257519D01*
X88992519Y-50138985D01*
X89131900Y-50045853D01*
X89286772Y-49981703D01*
X89451184Y-49949000D01*
X89618816Y-49949000D01*
X89783228Y-49981703D01*
X89783228Y-49981703D01*
G37*
G36*
X96768228Y-49981703D02*
G01*
X96923100Y-50045853D01*
X97062481Y-50138985D01*
X97181015Y-50257519D01*
X97274147Y-50396900D01*
X97338297Y-50551772D01*
X97371000Y-50716184D01*
X97371000Y-50883816D01*
X97338297Y-51048228D01*
X97274147Y-51203100D01*
X97181015Y-51342481D01*
X97062481Y-51461015D01*
X96923100Y-51554147D01*
X96768228Y-51618297D01*
X96603816Y-51651000D01*
X96436184Y-51651000D01*
X96271772Y-51618297D01*
X96116900Y-51554147D01*
X95977519Y-51461015D01*
X95858985Y-51342481D01*
X95765853Y-51203100D01*
X95701703Y-51048228D01*
X95669000Y-50883816D01*
X95669000Y-50716184D01*
X95701703Y-50551772D01*
X95765853Y-50396900D01*
X95858985Y-50257519D01*
X95977519Y-50138985D01*
X96116900Y-50045853D01*
X96271772Y-49981703D01*
X96436184Y-49949000D01*
X96603816Y-49949000D01*
X96768228Y-49981703D01*
X96768228Y-49981703D01*
G37*
G36*
X49138228Y-48751703D02*
G01*
X49293100Y-48815853D01*
X49432481Y-48908985D01*
X49551015Y-49027519D01*
X49644147Y-49166900D01*
X49708297Y-49321772D01*
X49741000Y-49486184D01*
X49741000Y-49653816D01*
X49708297Y-49818228D01*
X49644147Y-49973100D01*
X49551015Y-50112481D01*
X49432481Y-50231015D01*
X49293100Y-50324147D01*
X49138228Y-50388297D01*
X48973816Y-50421000D01*
X48806184Y-50421000D01*
X48641772Y-50388297D01*
X48486900Y-50324147D01*
X48347519Y-50231015D01*
X48228985Y-50112481D01*
X48135853Y-49973100D01*
X48071703Y-49818228D01*
X48039000Y-49653816D01*
X48039000Y-49486184D01*
X48071703Y-49321772D01*
X48135853Y-49166900D01*
X48228985Y-49027519D01*
X48347519Y-48908985D01*
X48486900Y-48815853D01*
X48641772Y-48751703D01*
X48806184Y-48719000D01*
X48973816Y-48719000D01*
X49138228Y-48751703D01*
X49138228Y-48751703D01*
G37*
G36*
X120816823Y-46786313D02*
G01*
X120977242Y-46834976D01*
X121044361Y-46870852D01*
X121125078Y-46913996D01*
X121254659Y-47020341D01*
X121361004Y-47149922D01*
X121361005Y-47149924D01*
X121440024Y-47297758D01*
X121488687Y-47458177D01*
X121505117Y-47625000D01*
X121488687Y-47791823D01*
X121440024Y-47952242D01*
X121399477Y-48028100D01*
X121361004Y-48100078D01*
X121254659Y-48229659D01*
X121125078Y-48336004D01*
X121125076Y-48336005D01*
X120977242Y-48415024D01*
X120816823Y-48463687D01*
X120691804Y-48476000D01*
X120608196Y-48476000D01*
X120483177Y-48463687D01*
X120322758Y-48415024D01*
X120174924Y-48336005D01*
X120174922Y-48336004D01*
X120045341Y-48229659D01*
X119938996Y-48100078D01*
X119900523Y-48028100D01*
X119859976Y-47952242D01*
X119811313Y-47791823D01*
X119794883Y-47625000D01*
X119811313Y-47458177D01*
X119859976Y-47297758D01*
X119938995Y-47149924D01*
X119938996Y-47149922D01*
X120045341Y-47020341D01*
X120174922Y-46913996D01*
X120255639Y-46870852D01*
X120322758Y-46834976D01*
X120483177Y-46786313D01*
X120608196Y-46774000D01*
X120691804Y-46774000D01*
X120816823Y-46786313D01*
X120816823Y-46786313D01*
G37*
G36*
X110738228Y-46806703D02*
G01*
X110893100Y-46870853D01*
X111032481Y-46963985D01*
X111151015Y-47082519D01*
X111244147Y-47221900D01*
X111308297Y-47376772D01*
X111341000Y-47541184D01*
X111341000Y-47708816D01*
X111308297Y-47873228D01*
X111244147Y-48028100D01*
X111151015Y-48167481D01*
X111032481Y-48286015D01*
X110893100Y-48379147D01*
X110738228Y-48443297D01*
X110573816Y-48476000D01*
X110406184Y-48476000D01*
X110241772Y-48443297D01*
X110086900Y-48379147D01*
X109947519Y-48286015D01*
X109828985Y-48167481D01*
X109735853Y-48028100D01*
X109671703Y-47873228D01*
X109639000Y-47708816D01*
X109639000Y-47541184D01*
X109671703Y-47376772D01*
X109735853Y-47221900D01*
X109828985Y-47082519D01*
X109947519Y-46963985D01*
X110086900Y-46870853D01*
X110241772Y-46806703D01*
X110406184Y-46774000D01*
X110573816Y-46774000D01*
X110738228Y-46806703D01*
X110738228Y-46806703D01*
G37*
G36*
X135634239Y-41811467D02*
G01*
X135948282Y-41873934D01*
X136539926Y-42119001D01*
X137072392Y-42474784D01*
X137525216Y-42927608D01*
X137880999Y-43460074D01*
X138126066Y-44051718D01*
X138172106Y-44283175D01*
X138251000Y-44679803D01*
X138251000Y-45320197D01*
X138204937Y-45551771D01*
X138126066Y-45948282D01*
X137880999Y-46539926D01*
X137659881Y-46870852D01*
X137525217Y-47072391D01*
X137072391Y-47525217D01*
X137048493Y-47541185D01*
X136539926Y-47880999D01*
X135948282Y-48126066D01*
X135634239Y-48188533D01*
X135320197Y-48251000D01*
X134679803Y-48251000D01*
X134365761Y-48188533D01*
X134051718Y-48126066D01*
X133460074Y-47880999D01*
X132951507Y-47541185D01*
X132927609Y-47525217D01*
X132474783Y-47072391D01*
X132340119Y-46870852D01*
X132119001Y-46539926D01*
X131873934Y-45948282D01*
X131795063Y-45551771D01*
X131749000Y-45320197D01*
X131749000Y-44679803D01*
X131827894Y-44283175D01*
X131873934Y-44051718D01*
X132119001Y-43460074D01*
X132474784Y-42927608D01*
X132927608Y-42474784D01*
X133460074Y-42119001D01*
X134051718Y-41873934D01*
X134365761Y-41811467D01*
X134679803Y-41749000D01*
X135320197Y-41749000D01*
X135634239Y-41811467D01*
X135634239Y-41811467D01*
G37*
G36*
X45634239Y-41811467D02*
G01*
X45948282Y-41873934D01*
X46539926Y-42119001D01*
X47072392Y-42474784D01*
X47525216Y-42927608D01*
X47880999Y-43460074D01*
X48126066Y-44051718D01*
X48172106Y-44283175D01*
X48251000Y-44679803D01*
X48251000Y-45320197D01*
X48204937Y-45551771D01*
X48126066Y-45948282D01*
X47880999Y-46539926D01*
X47659881Y-46870852D01*
X47525217Y-47072391D01*
X47072391Y-47525217D01*
X47048493Y-47541185D01*
X46539926Y-47880999D01*
X45948282Y-48126066D01*
X45634239Y-48188533D01*
X45320197Y-48251000D01*
X44679803Y-48251000D01*
X44365761Y-48188533D01*
X44051718Y-48126066D01*
X43460074Y-47880999D01*
X42951507Y-47541185D01*
X42927609Y-47525217D01*
X42474783Y-47072391D01*
X42340119Y-46870852D01*
X42119001Y-46539926D01*
X41873934Y-45948282D01*
X41795063Y-45551771D01*
X41749000Y-45320197D01*
X41749000Y-44679803D01*
X41827894Y-44283175D01*
X41873934Y-44051718D01*
X42119001Y-43460074D01*
X42474784Y-42927608D01*
X42927608Y-42474784D01*
X43460074Y-42119001D01*
X44051718Y-41873934D01*
X44365761Y-41811467D01*
X44679803Y-41749000D01*
X45320197Y-41749000D01*
X45634239Y-41811467D01*
X45634239Y-41811467D01*
G37*
G36*
X89783228Y-44981703D02*
G01*
X89938100Y-45045853D01*
X90077481Y-45138985D01*
X90196015Y-45257519D01*
X90289147Y-45396900D01*
X90353297Y-45551772D01*
X90386000Y-45716184D01*
X90386000Y-45883816D01*
X90353297Y-46048228D01*
X90289147Y-46203100D01*
X90196015Y-46342481D01*
X90077481Y-46461015D01*
X89938100Y-46554147D01*
X89783228Y-46618297D01*
X89618816Y-46651000D01*
X89451184Y-46651000D01*
X89286772Y-46618297D01*
X89131900Y-46554147D01*
X88992519Y-46461015D01*
X88873985Y-46342481D01*
X88780853Y-46203100D01*
X88716703Y-46048228D01*
X88684000Y-45883816D01*
X88684000Y-45716184D01*
X88716703Y-45551772D01*
X88780853Y-45396900D01*
X88873985Y-45257519D01*
X88992519Y-45138985D01*
X89131900Y-45045853D01*
X89286772Y-44981703D01*
X89451184Y-44949000D01*
X89618816Y-44949000D01*
X89783228Y-44981703D01*
X89783228Y-44981703D01*
G37*
G36*
X96768228Y-44981703D02*
G01*
X96923100Y-45045853D01*
X97062481Y-45138985D01*
X97181015Y-45257519D01*
X97274147Y-45396900D01*
X97338297Y-45551772D01*
X97371000Y-45716184D01*
X97371000Y-45883816D01*
X97338297Y-46048228D01*
X97274147Y-46203100D01*
X97181015Y-46342481D01*
X97062481Y-46461015D01*
X96923100Y-46554147D01*
X96768228Y-46618297D01*
X96603816Y-46651000D01*
X96436184Y-46651000D01*
X96271772Y-46618297D01*
X96116900Y-46554147D01*
X95977519Y-46461015D01*
X95858985Y-46342481D01*
X95765853Y-46203100D01*
X95701703Y-46048228D01*
X95669000Y-45883816D01*
X95669000Y-45716184D01*
X95701703Y-45551772D01*
X95765853Y-45396900D01*
X95858985Y-45257519D01*
X95977519Y-45138985D01*
X96116900Y-45045853D01*
X96271772Y-44981703D01*
X96436184Y-44949000D01*
X96603816Y-44949000D01*
X96768228Y-44981703D01*
X96768228Y-44981703D01*
G37*
G36*
X128436823Y-43611313D02*
G01*
X128597242Y-43659976D01*
X128729906Y-43730886D01*
X128745078Y-43738996D01*
X128874659Y-43845341D01*
X128981004Y-43974922D01*
X128981005Y-43974924D01*
X129060024Y-44122758D01*
X129108687Y-44283177D01*
X129125117Y-44450000D01*
X129108687Y-44616823D01*
X129060024Y-44777242D01*
X129019477Y-44853100D01*
X128981004Y-44925078D01*
X128874659Y-45054659D01*
X128745078Y-45161004D01*
X128745076Y-45161005D01*
X128597242Y-45240024D01*
X128436823Y-45288687D01*
X128311804Y-45301000D01*
X128228196Y-45301000D01*
X128103177Y-45288687D01*
X127942758Y-45240024D01*
X127794924Y-45161005D01*
X127794922Y-45161004D01*
X127665341Y-45054659D01*
X127558996Y-44925078D01*
X127520523Y-44853100D01*
X127479976Y-44777242D01*
X127431313Y-44616823D01*
X127414883Y-44450000D01*
X127431313Y-44283177D01*
X127479976Y-44122758D01*
X127558995Y-43974924D01*
X127558996Y-43974922D01*
X127665341Y-43845341D01*
X127794922Y-43738996D01*
X127810094Y-43730886D01*
X127942758Y-43659976D01*
X128103177Y-43611313D01*
X128228196Y-43599000D01*
X128311804Y-43599000D01*
X128436823Y-43611313D01*
X128436823Y-43611313D01*
G37*
G36*
X118358228Y-43631703D02*
G01*
X118513100Y-43695853D01*
X118652481Y-43788985D01*
X118771015Y-43907519D01*
X118864147Y-44046900D01*
X118928297Y-44201772D01*
X118961000Y-44366184D01*
X118961000Y-44533816D01*
X118928297Y-44698228D01*
X118864147Y-44853100D01*
X118771015Y-44992481D01*
X118652481Y-45111015D01*
X118513100Y-45204147D01*
X118358228Y-45268297D01*
X118193816Y-45301000D01*
X118026184Y-45301000D01*
X117861772Y-45268297D01*
X117706900Y-45204147D01*
X117567519Y-45111015D01*
X117448985Y-44992481D01*
X117355853Y-44853100D01*
X117291703Y-44698228D01*
X117259000Y-44533816D01*
X117259000Y-44366184D01*
X117291703Y-44201772D01*
X117355853Y-44046900D01*
X117448985Y-43907519D01*
X117567519Y-43788985D01*
X117706900Y-43695853D01*
X117861772Y-43631703D01*
X118026184Y-43599000D01*
X118193816Y-43599000D01*
X118358228Y-43631703D01*
X118358228Y-43631703D01*
G37*
G36*
X82020443Y-43105519D02*
G01*
X82086627Y-43112037D01*
X82256466Y-43163557D01*
X82412991Y-43247222D01*
X82426762Y-43258524D01*
X82550186Y-43359814D01*
X82611475Y-43434496D01*
X82662778Y-43497009D01*
X82662779Y-43497011D01*
X82746296Y-43653258D01*
X82746443Y-43653534D01*
X82797963Y-43823373D01*
X82815359Y-44000000D01*
X82797963Y-44176627D01*
X82746443Y-44346466D01*
X82662778Y-44502991D01*
X82637481Y-44533815D01*
X82550186Y-44640186D01*
X82479459Y-44698229D01*
X82412991Y-44752778D01*
X82256466Y-44836443D01*
X82086627Y-44887963D01*
X82020443Y-44894481D01*
X81954260Y-44901000D01*
X81865740Y-44901000D01*
X81799557Y-44894481D01*
X81733373Y-44887963D01*
X81563534Y-44836443D01*
X81407009Y-44752778D01*
X81340541Y-44698229D01*
X81269814Y-44640186D01*
X81182519Y-44533815D01*
X81157222Y-44502991D01*
X81073557Y-44346466D01*
X81022037Y-44176627D01*
X81004641Y-44000000D01*
X81022037Y-43823373D01*
X81073557Y-43653534D01*
X81073705Y-43653258D01*
X81157221Y-43497011D01*
X81157222Y-43497009D01*
X81208525Y-43434496D01*
X81269814Y-43359814D01*
X81393238Y-43258524D01*
X81407009Y-43247222D01*
X81563534Y-43163557D01*
X81733373Y-43112037D01*
X81799557Y-43105519D01*
X81865740Y-43099000D01*
X81954260Y-43099000D01*
X82020443Y-43105519D01*
X82020443Y-43105519D01*
G37*
G36*
X79480443Y-43105519D02*
G01*
X79546627Y-43112037D01*
X79716466Y-43163557D01*
X79872991Y-43247222D01*
X79886762Y-43258524D01*
X80010186Y-43359814D01*
X80071475Y-43434496D01*
X80122778Y-43497009D01*
X80122779Y-43497011D01*
X80206296Y-43653258D01*
X80206443Y-43653534D01*
X80257963Y-43823373D01*
X80275359Y-44000000D01*
X80257963Y-44176627D01*
X80206443Y-44346466D01*
X80122778Y-44502991D01*
X80097481Y-44533815D01*
X80010186Y-44640186D01*
X79939459Y-44698229D01*
X79872991Y-44752778D01*
X79716466Y-44836443D01*
X79546627Y-44887963D01*
X79480443Y-44894481D01*
X79414260Y-44901000D01*
X79325740Y-44901000D01*
X79259557Y-44894481D01*
X79193373Y-44887963D01*
X79023534Y-44836443D01*
X78867009Y-44752778D01*
X78800541Y-44698229D01*
X78729814Y-44640186D01*
X78642519Y-44533815D01*
X78617222Y-44502991D01*
X78533557Y-44346466D01*
X78482037Y-44176627D01*
X78464641Y-44000000D01*
X78482037Y-43823373D01*
X78533557Y-43653534D01*
X78533705Y-43653258D01*
X78617221Y-43497011D01*
X78617222Y-43497009D01*
X78668525Y-43434496D01*
X78729814Y-43359814D01*
X78853238Y-43258524D01*
X78867009Y-43247222D01*
X79023534Y-43163557D01*
X79193373Y-43112037D01*
X79259557Y-43105519D01*
X79325740Y-43099000D01*
X79414260Y-43099000D01*
X79480443Y-43105519D01*
X79480443Y-43105519D01*
G37*
G36*
X76940443Y-43105519D02*
G01*
X77006627Y-43112037D01*
X77176466Y-43163557D01*
X77332991Y-43247222D01*
X77346762Y-43258524D01*
X77470186Y-43359814D01*
X77531475Y-43434496D01*
X77582778Y-43497009D01*
X77582779Y-43497011D01*
X77666296Y-43653258D01*
X77666443Y-43653534D01*
X77717963Y-43823373D01*
X77735359Y-44000000D01*
X77717963Y-44176627D01*
X77666443Y-44346466D01*
X77582778Y-44502991D01*
X77557481Y-44533815D01*
X77470186Y-44640186D01*
X77399459Y-44698229D01*
X77332991Y-44752778D01*
X77176466Y-44836443D01*
X77006627Y-44887963D01*
X76940443Y-44894481D01*
X76874260Y-44901000D01*
X76785740Y-44901000D01*
X76719557Y-44894481D01*
X76653373Y-44887963D01*
X76483534Y-44836443D01*
X76327009Y-44752778D01*
X76260541Y-44698229D01*
X76189814Y-44640186D01*
X76102519Y-44533815D01*
X76077222Y-44502991D01*
X75993557Y-44346466D01*
X75942037Y-44176627D01*
X75924641Y-44000000D01*
X75942037Y-43823373D01*
X75993557Y-43653534D01*
X75993705Y-43653258D01*
X76077221Y-43497011D01*
X76077222Y-43497009D01*
X76128525Y-43434496D01*
X76189814Y-43359814D01*
X76313238Y-43258524D01*
X76327009Y-43247222D01*
X76483534Y-43163557D01*
X76653373Y-43112037D01*
X76719557Y-43105519D01*
X76785740Y-43099000D01*
X76874260Y-43099000D01*
X76940443Y-43105519D01*
X76940443Y-43105519D01*
G37*
G36*
X71860443Y-43105519D02*
G01*
X71926627Y-43112037D01*
X72096466Y-43163557D01*
X72252991Y-43247222D01*
X72266762Y-43258524D01*
X72390186Y-43359814D01*
X72451475Y-43434496D01*
X72502778Y-43497009D01*
X72502779Y-43497011D01*
X72586296Y-43653258D01*
X72586443Y-43653534D01*
X72637963Y-43823373D01*
X72655359Y-44000000D01*
X72637963Y-44176627D01*
X72586443Y-44346466D01*
X72502778Y-44502991D01*
X72477481Y-44533815D01*
X72390186Y-44640186D01*
X72319459Y-44698229D01*
X72252991Y-44752778D01*
X72096466Y-44836443D01*
X71926627Y-44887963D01*
X71860443Y-44894481D01*
X71794260Y-44901000D01*
X71705740Y-44901000D01*
X71639557Y-44894481D01*
X71573373Y-44887963D01*
X71403534Y-44836443D01*
X71247009Y-44752778D01*
X71180541Y-44698229D01*
X71109814Y-44640186D01*
X71022519Y-44533815D01*
X70997222Y-44502991D01*
X70913557Y-44346466D01*
X70862037Y-44176627D01*
X70844641Y-44000000D01*
X70862037Y-43823373D01*
X70913557Y-43653534D01*
X70913705Y-43653258D01*
X70997221Y-43497011D01*
X70997222Y-43497009D01*
X71048525Y-43434496D01*
X71109814Y-43359814D01*
X71233238Y-43258524D01*
X71247009Y-43247222D01*
X71403534Y-43163557D01*
X71573373Y-43112037D01*
X71639557Y-43105519D01*
X71705740Y-43099000D01*
X71794260Y-43099000D01*
X71860443Y-43105519D01*
X71860443Y-43105519D01*
G37*
G36*
X69320443Y-43105519D02*
G01*
X69386627Y-43112037D01*
X69556466Y-43163557D01*
X69712991Y-43247222D01*
X69726762Y-43258524D01*
X69850186Y-43359814D01*
X69911475Y-43434496D01*
X69962778Y-43497009D01*
X69962779Y-43497011D01*
X70046296Y-43653258D01*
X70046443Y-43653534D01*
X70097963Y-43823373D01*
X70115359Y-44000000D01*
X70097963Y-44176627D01*
X70046443Y-44346466D01*
X69962778Y-44502991D01*
X69937481Y-44533815D01*
X69850186Y-44640186D01*
X69779459Y-44698229D01*
X69712991Y-44752778D01*
X69556466Y-44836443D01*
X69386627Y-44887963D01*
X69320443Y-44894481D01*
X69254260Y-44901000D01*
X69165740Y-44901000D01*
X69099557Y-44894481D01*
X69033373Y-44887963D01*
X68863534Y-44836443D01*
X68707009Y-44752778D01*
X68640541Y-44698229D01*
X68569814Y-44640186D01*
X68482519Y-44533815D01*
X68457222Y-44502991D01*
X68373557Y-44346466D01*
X68322037Y-44176627D01*
X68304641Y-44000000D01*
X68322037Y-43823373D01*
X68373557Y-43653534D01*
X68373705Y-43653258D01*
X68457221Y-43497011D01*
X68457222Y-43497009D01*
X68508525Y-43434496D01*
X68569814Y-43359814D01*
X68693238Y-43258524D01*
X68707009Y-43247222D01*
X68863534Y-43163557D01*
X69033373Y-43112037D01*
X69099557Y-43105519D01*
X69165740Y-43099000D01*
X69254260Y-43099000D01*
X69320443Y-43105519D01*
X69320443Y-43105519D01*
G37*
G36*
X66780443Y-43105519D02*
G01*
X66846627Y-43112037D01*
X67016466Y-43163557D01*
X67172991Y-43247222D01*
X67186762Y-43258524D01*
X67310186Y-43359814D01*
X67371475Y-43434496D01*
X67422778Y-43497009D01*
X67422779Y-43497011D01*
X67506296Y-43653258D01*
X67506443Y-43653534D01*
X67557963Y-43823373D01*
X67575359Y-44000000D01*
X67557963Y-44176627D01*
X67506443Y-44346466D01*
X67422778Y-44502991D01*
X67397481Y-44533815D01*
X67310186Y-44640186D01*
X67239459Y-44698229D01*
X67172991Y-44752778D01*
X67016466Y-44836443D01*
X66846627Y-44887963D01*
X66780443Y-44894481D01*
X66714260Y-44901000D01*
X66625740Y-44901000D01*
X66559557Y-44894481D01*
X66493373Y-44887963D01*
X66323534Y-44836443D01*
X66167009Y-44752778D01*
X66100541Y-44698229D01*
X66029814Y-44640186D01*
X65942519Y-44533815D01*
X65917222Y-44502991D01*
X65833557Y-44346466D01*
X65782037Y-44176627D01*
X65764641Y-44000000D01*
X65782037Y-43823373D01*
X65833557Y-43653534D01*
X65833705Y-43653258D01*
X65917221Y-43497011D01*
X65917222Y-43497009D01*
X65968525Y-43434496D01*
X66029814Y-43359814D01*
X66153238Y-43258524D01*
X66167009Y-43247222D01*
X66323534Y-43163557D01*
X66493373Y-43112037D01*
X66559557Y-43105519D01*
X66625740Y-43099000D01*
X66714260Y-43099000D01*
X66780443Y-43105519D01*
X66780443Y-43105519D01*
G37*
G36*
X64240443Y-43105519D02*
G01*
X64306627Y-43112037D01*
X64476466Y-43163557D01*
X64632991Y-43247222D01*
X64646762Y-43258524D01*
X64770186Y-43359814D01*
X64831475Y-43434496D01*
X64882778Y-43497009D01*
X64882779Y-43497011D01*
X64966296Y-43653258D01*
X64966443Y-43653534D01*
X65017963Y-43823373D01*
X65035359Y-44000000D01*
X65017963Y-44176627D01*
X64966443Y-44346466D01*
X64882778Y-44502991D01*
X64857481Y-44533815D01*
X64770186Y-44640186D01*
X64699459Y-44698229D01*
X64632991Y-44752778D01*
X64476466Y-44836443D01*
X64306627Y-44887963D01*
X64240443Y-44894481D01*
X64174260Y-44901000D01*
X64085740Y-44901000D01*
X64019557Y-44894481D01*
X63953373Y-44887963D01*
X63783534Y-44836443D01*
X63627009Y-44752778D01*
X63560541Y-44698229D01*
X63489814Y-44640186D01*
X63402519Y-44533815D01*
X63377222Y-44502991D01*
X63293557Y-44346466D01*
X63242037Y-44176627D01*
X63224641Y-44000000D01*
X63242037Y-43823373D01*
X63293557Y-43653534D01*
X63293705Y-43653258D01*
X63377221Y-43497011D01*
X63377222Y-43497009D01*
X63428525Y-43434496D01*
X63489814Y-43359814D01*
X63613238Y-43258524D01*
X63627009Y-43247222D01*
X63783534Y-43163557D01*
X63953373Y-43112037D01*
X64019557Y-43105519D01*
X64085740Y-43099000D01*
X64174260Y-43099000D01*
X64240443Y-43105519D01*
X64240443Y-43105519D01*
G37*
G36*
X61700443Y-43105519D02*
G01*
X61766627Y-43112037D01*
X61936466Y-43163557D01*
X62092991Y-43247222D01*
X62106762Y-43258524D01*
X62230186Y-43359814D01*
X62291475Y-43434496D01*
X62342778Y-43497009D01*
X62342779Y-43497011D01*
X62426296Y-43653258D01*
X62426443Y-43653534D01*
X62477963Y-43823373D01*
X62495359Y-44000000D01*
X62477963Y-44176627D01*
X62426443Y-44346466D01*
X62342778Y-44502991D01*
X62317481Y-44533815D01*
X62230186Y-44640186D01*
X62159459Y-44698229D01*
X62092991Y-44752778D01*
X61936466Y-44836443D01*
X61766627Y-44887963D01*
X61700443Y-44894481D01*
X61634260Y-44901000D01*
X61545740Y-44901000D01*
X61479557Y-44894481D01*
X61413373Y-44887963D01*
X61243534Y-44836443D01*
X61087009Y-44752778D01*
X61020541Y-44698229D01*
X60949814Y-44640186D01*
X60862519Y-44533815D01*
X60837222Y-44502991D01*
X60753557Y-44346466D01*
X60702037Y-44176627D01*
X60684641Y-44000000D01*
X60702037Y-43823373D01*
X60753557Y-43653534D01*
X60753705Y-43653258D01*
X60837221Y-43497011D01*
X60837222Y-43497009D01*
X60888525Y-43434496D01*
X60949814Y-43359814D01*
X61073238Y-43258524D01*
X61087009Y-43247222D01*
X61243534Y-43163557D01*
X61413373Y-43112037D01*
X61479557Y-43105519D01*
X61545740Y-43099000D01*
X61634260Y-43099000D01*
X61700443Y-43105519D01*
X61700443Y-43105519D01*
G37*
G36*
X59160443Y-43105519D02*
G01*
X59226627Y-43112037D01*
X59396466Y-43163557D01*
X59552991Y-43247222D01*
X59566762Y-43258524D01*
X59690186Y-43359814D01*
X59751475Y-43434496D01*
X59802778Y-43497009D01*
X59802779Y-43497011D01*
X59886296Y-43653258D01*
X59886443Y-43653534D01*
X59937963Y-43823373D01*
X59955359Y-44000000D01*
X59937963Y-44176627D01*
X59886443Y-44346466D01*
X59802778Y-44502991D01*
X59777481Y-44533815D01*
X59690186Y-44640186D01*
X59619459Y-44698229D01*
X59552991Y-44752778D01*
X59396466Y-44836443D01*
X59226627Y-44887963D01*
X59160443Y-44894481D01*
X59094260Y-44901000D01*
X59005740Y-44901000D01*
X58939557Y-44894481D01*
X58873373Y-44887963D01*
X58703534Y-44836443D01*
X58547009Y-44752778D01*
X58480541Y-44698229D01*
X58409814Y-44640186D01*
X58322519Y-44533815D01*
X58297222Y-44502991D01*
X58213557Y-44346466D01*
X58162037Y-44176627D01*
X58144641Y-44000000D01*
X58162037Y-43823373D01*
X58213557Y-43653534D01*
X58213705Y-43653258D01*
X58297221Y-43497011D01*
X58297222Y-43497009D01*
X58348525Y-43434496D01*
X58409814Y-43359814D01*
X58533238Y-43258524D01*
X58547009Y-43247222D01*
X58703534Y-43163557D01*
X58873373Y-43112037D01*
X58939557Y-43105519D01*
X59005740Y-43099000D01*
X59094260Y-43099000D01*
X59160443Y-43105519D01*
X59160443Y-43105519D01*
G37*
G36*
X56620443Y-43105519D02*
G01*
X56686627Y-43112037D01*
X56856466Y-43163557D01*
X57012991Y-43247222D01*
X57026762Y-43258524D01*
X57150186Y-43359814D01*
X57211475Y-43434496D01*
X57262778Y-43497009D01*
X57262779Y-43497011D01*
X57346296Y-43653258D01*
X57346443Y-43653534D01*
X57397963Y-43823373D01*
X57415359Y-44000000D01*
X57397963Y-44176627D01*
X57346443Y-44346466D01*
X57262778Y-44502991D01*
X57237481Y-44533815D01*
X57150186Y-44640186D01*
X57079459Y-44698229D01*
X57012991Y-44752778D01*
X56856466Y-44836443D01*
X56686627Y-44887963D01*
X56620443Y-44894481D01*
X56554260Y-44901000D01*
X56465740Y-44901000D01*
X56399557Y-44894481D01*
X56333373Y-44887963D01*
X56163534Y-44836443D01*
X56007009Y-44752778D01*
X55940541Y-44698229D01*
X55869814Y-44640186D01*
X55782519Y-44533815D01*
X55757222Y-44502991D01*
X55673557Y-44346466D01*
X55622037Y-44176627D01*
X55604641Y-44000000D01*
X55622037Y-43823373D01*
X55673557Y-43653534D01*
X55673705Y-43653258D01*
X55757221Y-43497011D01*
X55757222Y-43497009D01*
X55808525Y-43434496D01*
X55869814Y-43359814D01*
X55993238Y-43258524D01*
X56007009Y-43247222D01*
X56163534Y-43163557D01*
X56333373Y-43112037D01*
X56399557Y-43105519D01*
X56465740Y-43099000D01*
X56554260Y-43099000D01*
X56620443Y-43105519D01*
X56620443Y-43105519D01*
G37*
G36*
X54871000Y-44901000D02*
G01*
X53069000Y-44901000D01*
X53069000Y-43099000D01*
X54871000Y-43099000D01*
X54871000Y-44901000D01*
X54871000Y-44901000D01*
G37*
G36*
X106155443Y-43105519D02*
G01*
X106221627Y-43112037D01*
X106391466Y-43163557D01*
X106547991Y-43247222D01*
X106561762Y-43258524D01*
X106685186Y-43359814D01*
X106746475Y-43434496D01*
X106797778Y-43497009D01*
X106797779Y-43497011D01*
X106881296Y-43653258D01*
X106881443Y-43653534D01*
X106932963Y-43823373D01*
X106950359Y-44000000D01*
X106932963Y-44176627D01*
X106881443Y-44346466D01*
X106797778Y-44502991D01*
X106772481Y-44533815D01*
X106685186Y-44640186D01*
X106614459Y-44698229D01*
X106547991Y-44752778D01*
X106391466Y-44836443D01*
X106221627Y-44887963D01*
X106155443Y-44894481D01*
X106089260Y-44901000D01*
X106000740Y-44901000D01*
X105934557Y-44894481D01*
X105868373Y-44887963D01*
X105698534Y-44836443D01*
X105542009Y-44752778D01*
X105475541Y-44698229D01*
X105404814Y-44640186D01*
X105317519Y-44533815D01*
X105292222Y-44502991D01*
X105208557Y-44346466D01*
X105157037Y-44176627D01*
X105139641Y-44000000D01*
X105157037Y-43823373D01*
X105208557Y-43653534D01*
X105208705Y-43653258D01*
X105292221Y-43497011D01*
X105292222Y-43497009D01*
X105343525Y-43434496D01*
X105404814Y-43359814D01*
X105528238Y-43258524D01*
X105542009Y-43247222D01*
X105698534Y-43163557D01*
X105868373Y-43112037D01*
X105934557Y-43105519D01*
X106000740Y-43099000D01*
X106089260Y-43099000D01*
X106155443Y-43105519D01*
X106155443Y-43105519D01*
G37*
G36*
X74400443Y-43105519D02*
G01*
X74466627Y-43112037D01*
X74636466Y-43163557D01*
X74792991Y-43247222D01*
X74806762Y-43258524D01*
X74930186Y-43359814D01*
X74991475Y-43434496D01*
X75042778Y-43497009D01*
X75042779Y-43497011D01*
X75126296Y-43653258D01*
X75126443Y-43653534D01*
X75177963Y-43823373D01*
X75195359Y-44000000D01*
X75177963Y-44176627D01*
X75126443Y-44346466D01*
X75042778Y-44502991D01*
X75017481Y-44533815D01*
X74930186Y-44640186D01*
X74859459Y-44698229D01*
X74792991Y-44752778D01*
X74636466Y-44836443D01*
X74466627Y-44887963D01*
X74400443Y-44894481D01*
X74334260Y-44901000D01*
X74245740Y-44901000D01*
X74179557Y-44894481D01*
X74113373Y-44887963D01*
X73943534Y-44836443D01*
X73787009Y-44752778D01*
X73720541Y-44698229D01*
X73649814Y-44640186D01*
X73562519Y-44533815D01*
X73537222Y-44502991D01*
X73453557Y-44346466D01*
X73402037Y-44176627D01*
X73384641Y-44000000D01*
X73402037Y-43823373D01*
X73453557Y-43653534D01*
X73453705Y-43653258D01*
X73537221Y-43497011D01*
X73537222Y-43497009D01*
X73588525Y-43434496D01*
X73649814Y-43359814D01*
X73773238Y-43258524D01*
X73787009Y-43247222D01*
X73943534Y-43163557D01*
X74113373Y-43112037D01*
X74179557Y-43105519D01*
X74245740Y-43099000D01*
X74334260Y-43099000D01*
X74400443Y-43105519D01*
X74400443Y-43105519D01*
G37*
G36*
X104406000Y-44901000D02*
G01*
X102604000Y-44901000D01*
X102604000Y-43099000D01*
X104406000Y-43099000D01*
X104406000Y-44901000D01*
X104406000Y-44901000D01*
G37*
G36*
X108695443Y-43105519D02*
G01*
X108761627Y-43112037D01*
X108931466Y-43163557D01*
X109087991Y-43247222D01*
X109101762Y-43258524D01*
X109225186Y-43359814D01*
X109286475Y-43434496D01*
X109337778Y-43497009D01*
X109337779Y-43497011D01*
X109421296Y-43653258D01*
X109421443Y-43653534D01*
X109472963Y-43823373D01*
X109490359Y-44000000D01*
X109472963Y-44176627D01*
X109421443Y-44346466D01*
X109337778Y-44502991D01*
X109312481Y-44533815D01*
X109225186Y-44640186D01*
X109154459Y-44698229D01*
X109087991Y-44752778D01*
X108931466Y-44836443D01*
X108761627Y-44887963D01*
X108695443Y-44894481D01*
X108629260Y-44901000D01*
X108540740Y-44901000D01*
X108474557Y-44894481D01*
X108408373Y-44887963D01*
X108238534Y-44836443D01*
X108082009Y-44752778D01*
X108015541Y-44698229D01*
X107944814Y-44640186D01*
X107857519Y-44533815D01*
X107832222Y-44502991D01*
X107748557Y-44346466D01*
X107697037Y-44176627D01*
X107679641Y-44000000D01*
X107697037Y-43823373D01*
X107748557Y-43653534D01*
X107748705Y-43653258D01*
X107832221Y-43497011D01*
X107832222Y-43497009D01*
X107883525Y-43434496D01*
X107944814Y-43359814D01*
X108068238Y-43258524D01*
X108082009Y-43247222D01*
X108238534Y-43163557D01*
X108408373Y-43112037D01*
X108474557Y-43105519D01*
X108540740Y-43099000D01*
X108629260Y-43099000D01*
X108695443Y-43105519D01*
X108695443Y-43105519D01*
G37*
M02*
