M48
; DRILL file {KiCad (5.1.2)-2} date 12/12/2019 2:46:31 AM
; FORMAT={-:-/ absolute / metric / decimal}
; #@! TF.CreationDate,2019-12-12T02:46:31+03:00
; #@! TF.GenerationSoftware,Kicad,Pcbnew,(5.1.2)-2
; #@! TF.FileFunction,Plated,1,2,PTH
FMAT,2
METRIC
T1C0.500
T2C0.710
T3C0.750
T4C0.800
T5C0.900
T6C0.920
T7C1.000
T8C1.100
T9C1.700
T10C2.330
T11C3.200
%
G90
G05
T1
X132.6Y-45.0
X133.303Y-43.303
X133.303Y-46.697
X135.0Y-42.6
X135.0Y-47.4
X136.697Y-43.303
X136.697Y-46.697
X137.4Y-45.0
X132.6Y-85.0
X133.303Y-83.303
X133.303Y-86.697
X135.0Y-82.6
X135.0Y-87.4
X136.697Y-83.303
X136.697Y-86.697
X137.4Y-85.0
X42.6Y-45.0
X43.303Y-43.303
X43.303Y-46.697
X45.0Y-42.6
X45.0Y-47.4
X46.697Y-43.303
X46.697Y-46.697
X47.4Y-45.0
X42.6Y-85.0
X43.303Y-83.303
X43.303Y-86.697
X45.0Y-82.6
X45.0Y-87.4
X46.697Y-83.303
X46.697Y-86.697
X47.4Y-85.0
T2
X125.095Y-80.01
X130.195Y-81.21
T3
X112.395Y-76.835
X112.395Y-78.105
X112.395Y-79.375
T4
X118.11Y-44.45
X128.27Y-44.45
X112.395Y-70.48
X112.395Y-72.98
X76.83Y-72.385
X76.83Y-77.385
X71.95Y-72.385
X71.95Y-77.385
X84.45Y-66.67
X94.61Y-66.67
X93.34Y-55.24
X93.34Y-62.86
X95.88Y-55.24
X95.88Y-62.86
X98.42Y-55.24
X98.42Y-62.86
X100.96Y-55.24
X100.96Y-62.86
X103.5Y-55.24
X103.5Y-62.86
X106.04Y-55.24
X106.04Y-62.86
X108.58Y-55.24
X108.58Y-62.86
X110.49Y-47.625
X120.65Y-47.625
X114.93Y-55.24
X114.93Y-65.4
X71.95Y-67.94
X76.83Y-67.94
X118.11Y-65.405
X118.11Y-75.565
X112.395Y-82.55
X112.395Y-87.55
X85.72Y-70.48
X85.72Y-75.48
X97.15Y-66.67
X107.31Y-66.67
X102.23Y-75.56
X105.73Y-75.56
X48.89Y-65.4
X48.89Y-75.56
X53.97Y-55.24
X53.97Y-62.86
X56.51Y-55.24
X56.51Y-62.86
X59.05Y-55.24
X59.05Y-62.86
X61.59Y-55.24
X61.59Y-62.86
X64.13Y-55.24
X64.13Y-62.86
X66.67Y-55.24
X66.67Y-62.86
X69.21Y-55.24
X69.21Y-62.86
X71.75Y-55.24
X71.75Y-62.86
X74.29Y-55.24
X74.29Y-62.86
X76.83Y-55.24
X76.83Y-62.86
X79.37Y-55.24
X79.37Y-62.86
X81.91Y-55.24
X81.91Y-62.86
X84.45Y-55.24
X84.45Y-62.86
X86.99Y-55.24
X86.99Y-62.86
X93.34Y-75.56
X96.84Y-75.56
X89.535Y-45.8
X89.535Y-50.8
X53.97Y-66.71
X53.97Y-69.21
X48.89Y-49.57
X48.89Y-52.07
X96.52Y-45.8
X96.52Y-50.8
T5
X118.74Y-53.97
X121.28Y-53.97
X133.98Y-53.97
X136.52Y-53.97
X126.36Y-53.97
X128.9Y-53.97
T6
X124.46Y-67.31
X124.46Y-69.81
X126.46Y-67.31
X126.46Y-69.81
T7
X56.51Y-86.0
X59.05Y-86.0
X61.59Y-86.0
X64.13Y-86.0
X66.67Y-86.0
X69.21Y-86.0
X71.75Y-86.0
X74.29Y-86.0
X44.0Y-55.24
X44.0Y-57.78
X44.0Y-60.32
X44.0Y-62.86
X53.97Y-44.0
X56.51Y-44.0
X59.05Y-44.0
X61.59Y-44.0
X64.13Y-44.0
X66.67Y-44.0
X69.21Y-44.0
X71.75Y-44.0
X74.29Y-44.0
X76.83Y-44.0
X79.37Y-44.0
X81.91Y-44.0
X103.505Y-44.0
X106.045Y-44.0
X108.585Y-44.0
X44.0Y-73.02
X44.0Y-75.56
T8
X117.475Y-85.09
X127.635Y-85.09
X95.88Y-86.36
X98.42Y-86.36
X100.96Y-86.36
T9
X83.185Y-83.82
X87.145Y-83.82
T10
X129.17Y-62.54
X129.17Y-74.58
T11
X135.0Y-45.0
X135.0Y-85.0
X45.0Y-45.0
X45.0Y-85.0
T0
M30
